<svg version="1.1" xmlns="http://www.w3.org/2000/svg" viewBox="0 0 712.7009299830335 365.5009552053999" width="712.7009299830335" height="365.5009552053999">
  <!-- svg-source:excalidraw -->
  
  <defs>
    <style class="style-fonts">
      @font-face {
        font-family: "Virgil";
        src: url("https://excalidraw.com/Virgil.woff2");
      }
      @font-face {
        font-family: "Cascadia";
        src: url("https://excalidraw.com/Cascadia.woff2");
      }
      @font-face {
        font-family: "Assistant";
        src: url("https://excalidraw.com/Assistant-Regular.woff2");
      }
    </style>
    
  </defs>
  <rect x="0" y="0" width="712.7009299830335" height="365.5009552053999" fill="#ffffff"></rect><g stroke-linecap="round"><g transform="translate(187.97910418651054 304.8338367207889) rotate(0 0 -118.6652465851189)"><path d="M0 0 C0 -39.56, 0 -197.78, 0 -237.33 M0 0 C0 -39.56, 0 -197.78, 0 -237.33" stroke="#1e1e1e" stroke-width="2" fill="none"></path></g><g transform="translate(187.97910418651054 304.8338367207889) rotate(0 0 -118.6652465851189)"><path d="M8.55 -213.84 C6.2 -220.3, 3.85 -226.75, 0 -237.33 M8.55 -213.84 C6.79 -218.68, 5.02 -223.53, 0 -237.33" stroke="#1e1e1e" stroke-width="2" fill="none"></path></g><g transform="translate(187.97910418651054 304.8338367207889) rotate(0 0 -118.6652465851189)"><path d="M-8.55 -213.84 C-6.2 -220.3, -3.85 -226.75, 0 -237.33 M-8.55 -213.84 C-6.79 -218.68, -5.02 -223.53, 0 -237.33" stroke="#1e1e1e" stroke-width="2" fill="none"></path></g></g><mask></mask><g stroke-linecap="round"><g transform="translate(176.0210383097765 294.78141043664095) rotate(0 200.88933914493373 0)"><path d="M0 0 C66.96 0, 334.82 0, 401.78 0 M0 0 C66.96 0, 334.82 0, 401.78 0" stroke="#1e1e1e" stroke-width="2" fill="none"></path></g><g transform="translate(176.0210383097765 294.78141043664095) rotate(0 200.88933914493373 0)"><path d="M378.29 8.55 C383.72 6.57, 389.15 4.6, 401.78 0 M378.29 8.55 C387.56 5.18, 396.83 1.8, 401.78 0" stroke="#1e1e1e" stroke-width="2" fill="none"></path></g><g transform="translate(176.0210383097765 294.78141043664095) rotate(0 200.88933914493373 0)"><path d="M378.29 -8.55 C383.72 -6.57, 389.15 -4.6, 401.78 0 M378.29 -8.55 C387.56 -5.18, 396.83 -1.8, 401.78 0" stroke="#1e1e1e" stroke-width="2" fill="none"></path></g></g><mask></mask><g transform="translate(589.4756949976819 254.66466694142377) rotate(0 56.61261749267578 24)"><text x="0" y="0" font-family="LocalFont, Segoe UI Emoji" font-size="20px" fill="#1e1e1e" text-anchor="start" style="white-space: pre;" direction="ltr" dominant-baseline="text-before-edge">Complexity</text><text x="0" y="24" font-family="LocalFont, Segoe UI Emoji" font-size="20px" fill="#1e1e1e" text-anchor="start" style="white-space: pre;" direction="ltr" dominant-baseline="text-before-edge">of Systems</text></g><g transform="translate(105.15284543538974 10) rotate(0 81.6722412109375 24)"><text x="81.6722412109375" y="0" font-family="LocalFont, Segoe UI Emoji" font-size="20px" fill="#1e1e1e" text-anchor="middle" style="white-space: pre;" direction="ltr" dominant-baseline="text-before-edge">Range of Failure</text><text x="81.6722412109375" y="24" font-family="LocalFont, Segoe UI Emoji" font-size="20px" fill="#1e1e1e" text-anchor="middle" style="white-space: pre;" direction="ltr" dominant-baseline="text-before-edge">Types Detected</text></g><g transform="translate(10 84.63516990001813) rotate(0 80.18392944335938 12)"><text x="160.36785888671875" y="0" font-family="LocalFont, Segoe UI Emoji" font-size="20px" fill="#1e1e1e" text-anchor="end" style="white-space: pre;" direction="ltr" dominant-baseline="text-before-edge">Unknown Types</text></g><g transform="translate(25.603378295898438 165.50117386056274) rotate(0 72.38224029541016 12)"><text x="144.7644805908203" y="0" font-family="LocalFont, Segoe UI Emoji" font-size="20px" fill="#1e1e1e" text-anchor="end" style="white-space: pre;" direction="ltr" dominant-baseline="text-before-edge">Multiple Types</text></g><g transform="translate(55.485321044921875 246.36717782110748) rotate(0 57.44126892089844 12)"><text x="114.88253784179688" y="0" font-family="LocalFont, Segoe UI Emoji" font-size="20px" fill="#1e1e1e" text-anchor="end" style="white-space: pre;" direction="ltr" dominant-baseline="text-before-edge">Single Type</text></g><g transform="translate(254.74414325265525 307.5009552053999) rotate(0 23.699974060058594 12.5)"><text x="23.699974060058594" y="0" font-family="LocalFont, Segoe UI Emoji" font-size="20px" fill="#787878" text-anchor="middle" style="white-space: pre;" direction="ltr" dominant-baseline="text-before-edge">Chat</text></g><g transform="translate(411.6702390666346 308.0009552053999) rotate(0 35.7099609375 12)"><text x="35.7099609375" y="0" font-family="LocalFont, Segoe UI Emoji" font-size="20px" fill="#787878" text-anchor="middle" style="white-space: pre;" direction="ltr" dominant-baseline="text-before-edge">Agents</text></g><g stroke-linecap="round"><g transform="translate(254.93783488157555 89.2067759514182) rotate(0 121.75182625397838 77.09419023949624)" fill-rule="evenodd"><path d="M-33.53 30.48 C-33.53 30.48, -33.53 30.48, -33.53 30.48 M-33.53 30.48 C-33.53 30.48, -33.53 30.48, -33.53 30.48 M-36.02 45.54 C-23.83 31.52, -11.65 17.5, 4 -0.5 M-36.02 45.54 C-23.34 30.94, -10.65 16.35, 4 -0.5 M-32.61 53.8 C-12.4 30.56, 7.81 7.31, 19.22 -5.82 M-32.61 53.8 C-20.11 39.43, -7.61 25.05, 19.22 -5.82 M-28.54 61.32 C-13.05 43.5, 2.44 25.68, 34.44 -11.14 M-28.54 61.32 C-9.14 39, 10.25 16.69, 34.44 -11.14 M-23.81 68.07 C-4.82 46.23, 14.17 24.38, 49.66 -16.45 M-23.81 68.07 C4.72 35.25, 33.26 2.42, 49.66 -16.45 M-18.43 74.08 C8.66 42.91, 35.75 11.75, 63.57 -20.26 M-18.43 74.08 C5.16 46.93, 28.76 19.79, 63.57 -20.26 M-13.05 80.08 C18.94 43.28, 50.94 6.47, 77.49 -24.07 M-13.05 80.08 C16.29 46.33, 45.62 12.58, 77.49 -24.07 M-7.01 85.33 C29.9 42.86, 66.82 0.39, 90.08 -26.37 M-7.01 85.33 C12.99 62.32, 32.99 39.31, 90.08 -26.37 M-0.98 90.58 C29.73 55.25, 60.44 19.93, 102.68 -28.67 M-0.98 90.58 C20.92 65.39, 42.82 40.2, 102.68 -28.67 M5.72 95.07 C48.34 46.04, 90.97 -3, 114.62 -30.21 M5.72 95.07 C34.5 61.96, 63.28 28.86, 114.62 -30.21 M12.41 99.57 C38.45 69.61, 64.5 39.65, 124.6 -29.49 M12.41 99.57 C47.72 58.95, 83.02 18.34, 124.6 -29.49 M21.07 101.79 C47.54 71.34, 74.02 40.89, 134.57 -28.77 M21.07 101.79 C45.52 73.67, 69.97 45.55, 134.57 -28.77 M30.39 103.27 C68.02 59.98, 105.65 16.69, 144.55 -28.05 M30.39 103.27 C64.71 63.79, 99.02 24.32, 144.55 -28.05 M41.68 102.48 C81.23 56.99, 120.77 11.49, 155.18 -28.08 M41.68 102.48 C71.64 68.02, 101.6 33.55, 155.18 -28.08 M54.28 100.18 C85.21 64.59, 116.15 29.01, 164.49 -26.61 M54.28 100.18 C91.4 57.48, 128.51 14.78, 164.49 -26.61 M66.22 98.64 C93.46 67.29, 120.71 35.95, 173.81 -25.13 M66.22 98.64 C105.6 53.33, 144.98 8.03, 173.81 -25.13 M78.82 96.34 C99.88 72.11, 120.95 47.87, 183.79 -24.41 M78.82 96.34 C120.03 48.93, 161.23 1.53, 183.79 -24.41 M90.1 95.55 C114.54 67.44, 138.97 39.33, 193.1 -22.94 M90.1 95.55 C124.01 56.54, 157.93 17.53, 193.1 -22.94 M100.08 96.27 C133.7 57.6, 167.32 18.92, 202.42 -21.46 M100.08 96.27 C134.76 56.37, 169.45 16.47, 202.42 -21.46 M108.08 99.25 C135.22 68.04, 162.36 36.82, 211.08 -19.23 M108.08 99.25 C140.3 62.19, 172.52 25.13, 211.08 -19.23 M113.46 105.26 C148.15 65.35, 182.84 25.45, 219.75 -17 M113.46 105.26 C139.85 74.9, 166.24 44.54, 219.75 -17 M118.19 112.02 C147.78 77.97, 177.37 43.93, 228.41 -14.78 M118.19 112.02 C154.28 70.5, 190.37 28.99, 228.41 -14.78 M120.95 121.04 C164.83 70.56, 208.71 20.07, 236.41 -11.79 M120.95 121.04 C154.98 81.89, 189.01 42.74, 236.41 -11.79 M123.7 130.06 C155.35 93.65, 187 57.24, 244.42 -8.81 M123.7 130.06 C164.21 83.47, 204.71 36.87, 244.42 -8.81 M126.46 139.08 C163.89 96.03, 201.32 52.97, 251.77 -5.07 M126.46 139.08 C158.28 102.48, 190.09 65.89, 251.77 -5.07 M129.22 148.1 C158.68 114.21, 188.14 80.32, 258.46 -0.57 M129.22 148.1 C174.58 95.93, 219.93 43.75, 258.46 -0.57 M132.63 156.37 C161.11 123.61, 189.58 90.86, 265.16 3.92 M132.63 156.37 C159.52 125.44, 186.41 94.51, 265.16 3.92 M138.01 162.37 C167.37 128.6, 196.73 94.83, 269.88 10.68 M138.01 162.37 C182.74 110.93, 227.46 59.48, 269.88 10.68 M144.71 166.87 C181.49 124.55, 218.28 82.23, 273.95 18.19 M144.71 166.87 C173.21 134.08, 201.7 101.3, 273.95 18.19 M151.4 171.36 C185.86 131.73, 220.31 92.09, 276.05 27.97 M151.4 171.36 C190.94 125.88, 230.47 80.4, 276.05 27.97 M159.41 174.35 C205.16 121.72, 250.91 69.08, 277.5 38.5 M159.41 174.35 C193.3 135.36, 227.19 96.37, 277.5 38.5 M167.41 177.33 C199.9 139.96, 232.39 102.59, 278.29 49.78 M167.41 177.33 C195.53 144.99, 223.64 112.65, 278.29 49.78 M176.08 179.56 C199.52 152.59, 222.97 125.62, 279.73 60.32 M176.08 179.56 C215.91 133.74, 255.74 87.92, 279.73 60.32 M184.74 181.79 C218.22 143.27, 251.7 104.76, 280.52 71.6 M184.74 181.79 C220.03 141.19, 255.32 100.59, 280.52 71.6 M194.06 183.26 C214.03 160.29, 234.01 137.31, 281.97 82.13 M194.06 183.26 C228.84 143.25, 263.63 103.23, 281.97 82.13 M204.03 183.99 C235.77 147.47, 267.52 110.95, 284.07 91.91 M204.03 183.99 C222.73 162.48, 241.42 140.97, 284.07 91.91 M214.66 183.95 C231.53 164.54, 248.4 145.13, 284.86 103.2 M214.66 183.95 C229.14 167.29, 243.62 150.63, 284.86 103.2 M225.95 183.16 C247.33 158.56, 268.71 133.97, 285.65 114.48 M225.95 183.16 C242.2 164.46, 258.45 145.77, 285.65 114.48 M237.23 182.37 C248.98 168.86, 260.73 155.35, 286.44 125.77 M237.23 182.37 C247.2 170.9, 257.17 159.44, 286.44 125.77 M249.83 180.07 C258.34 170.28, 266.85 160.49, 286.57 137.81 M249.83 180.07 C259.35 169.12, 268.88 158.16, 286.57 137.81 M265.71 174 C269.73 169.37, 273.76 164.74, 284.08 152.87 M265.71 174 C272.56 166.12, 279.4 158.25, 284.08 152.87 M-1.77 90.44 C-1.77 90.44, -1.77 90.44, -1.77 90.44 M-1.77 90.44 C-1.77 90.44, -1.77 90.44, -1.77 90.44 M24.61 102.77 C7.32 87.74, -9.97 72.71, -32.74 52.91 M24.61 102.77 C12.78 92.48, 0.94 82.19, -32.74 52.91 M36.65 102.64 C16.79 85.37, -3.08 68.1, -36.55 39 M36.65 102.64 C12.12 81.31, -12.42 59.98, -36.55 39 M47.19 101.19 C28.66 85.09, 10.13 68.98, -33.57 30.99 M47.19 101.19 C15.31 73.48, -16.56 45.78, -33.57 30.99 M56.96 99.09 C31.41 76.88, 5.85 54.66, -28.32 24.96 M56.96 99.09 C37.2 81.91, 17.44 64.74, -28.32 24.96 M148.25 167.84 C143.97 164.13, 139.69 160.41, 132.4 154.07 M148.25 167.84 C143.01 163.29, 137.77 158.73, 132.4 154.07 M67.49 97.65 C34.53 68.99, 1.56 40.33, -23.07 18.92 M67.49 97.65 C41.09 74.7, 14.7 51.75, -23.07 18.92 M172.36 178.21 C157.7 165.46, 143.04 152.72, 125.57 137.53 M172.36 178.21 C162.61 169.73, 152.86 161.26, 125.57 137.53 M78.03 96.2 C46.73 69, 15.44 41.8, -17.07 13.54 M78.03 96.2 C45.01 67.5, 12 38.8, -17.07 13.54 M188.18 181.36 C163.09 159.54, 137.99 137.73, 121.01 122.97 M188.18 181.36 C166.42 162.44, 144.66 143.52, 121.01 122.97 M88.56 94.76 C55.65 66.15, 22.74 37.55, -10.31 8.81 M88.56 94.76 C50.69 61.84, 12.83 28.93, -10.31 8.81 M202.48 183.19 C177.5 161.47, 152.51 139.75, 115.69 107.74 M202.48 183.19 C169.95 154.91, 137.42 126.63, 115.69 107.74 M102.11 95.93 C71.58 69.4, 41.06 42.86, -4.31 3.43 M102.11 95.93 C77.14 74.23, 52.17 52.52, -4.31 3.43 M215.28 183.71 C169.11 143.58, 122.94 103.44, 2.45 -1.3 M215.28 183.71 C138.64 117.1, 62.01 50.48, 2.45 -1.3 M226.57 182.92 C145.68 112.61, 64.79 42.29, 11.47 -4.05 M226.57 182.92 C164.29 128.79, 102.01 74.65, 11.47 -4.05 M237.1 181.48 C162.12 116.3, 87.15 51.13, 19.74 -7.47 M237.1 181.48 C176.18 128.53, 115.26 75.57, 19.74 -7.47 M247.63 180.03 C169.09 111.76, 90.56 43.49, 28.76 -10.22 M247.63 180.03 C163.04 106.5, 78.44 32.96, 28.76 -10.22 M256.65 177.28 C173.6 105.08, 90.54 32.88, 37.78 -12.98 M256.65 177.28 C204.65 132.08, 152.66 86.88, 37.78 -12.98 M264.92 173.86 C206.49 123.07, 148.06 72.28, 46.05 -16.39 M264.92 173.86 C195.75 113.74, 126.58 53.61, 46.05 -16.39 M271.68 169.14 C217.38 121.93, 163.08 74.73, 55.83 -18.5 M271.68 169.14 C199.2 106.14, 126.73 43.14, 55.83 -18.5 M277.68 163.76 C212.62 107.2, 147.56 50.64, 64.85 -21.25 M277.68 163.76 C209.55 104.53, 141.42 45.31, 64.85 -21.25 M282.17 157.06 C237.24 118.01, 192.32 78.95, 73.87 -24.01 M282.17 157.06 C203 88.24, 123.83 19.42, 73.87 -24.01 M284.4 148.4 C213.39 86.67, 142.37 24.94, 83.65 -26.11 M284.4 148.4 C205.64 79.93, 126.87 11.46, 83.65 -26.11 M285.88 139.08 C218.57 80.57, 151.26 22.06, 93.43 -28.21 M285.88 139.08 C213.24 75.94, 140.6 12.79, 93.43 -28.21 M285.84 128.45 C238.17 87.01, 190.49 45.57, 104.71 -29 M285.84 128.45 C217.4 68.95, 148.95 9.46, 104.71 -29 M286.56 118.48 C242.86 80.49, 199.16 42.5, 115.24 -30.45 M286.56 118.48 C246.09 83.29, 205.61 48.11, 115.24 -30.45 M285.02 106.54 C228.56 57.46, 172.1 8.38, 128.04 -29.92 M285.02 106.54 C242.1 69.23, 199.18 31.92, 128.04 -29.92 M284.23 95.25 C233.11 50.81, 182 6.38, 140.83 -29.4 M284.23 95.25 C246.02 62.03, 207.81 28.82, 140.83 -29.4 M281.93 82.65 C238.3 44.72, 194.66 6.79, 154.38 -28.22 M281.93 82.65 C240.2 46.38, 198.47 10.1, 154.38 -28.22 M280.39 70.71 C257.81 51.08, 235.23 31.46, 168.69 -26.39 M280.39 70.71 C249.15 43.55, 217.91 16.39, 168.69 -26.39 M278.84 58.77 C242.14 26.86, 205.43 -5.05, 182.99 -24.55 M278.84 58.77 C246.35 30.52, 213.85 2.27, 182.99 -24.55 M278.05 47.48 C248.68 21.95, 219.31 -3.59, 197.3 -22.72 M278.05 47.48 C254.72 27.19, 231.38 6.91, 197.3 -22.72 M277.26 36.19 C262.97 23.77, 248.68 11.35, 214.62 -18.26 M277.26 36.19 C254.69 16.57, 232.12 -3.05, 214.62 -18.26 M275.72 24.25 C260.49 11.01, 245.26 -2.23, 230.44 -15.11 M275.72 24.25 C266.25 16.02, 256.79 7.79, 230.44 -15.11 M267.38 6.41 C263.8 3.29, 260.21 0.17, 255.31 -4.09 M267.38 6.41 C262.62 2.27, 257.87 -1.87, 255.31 -4.09" stroke="#ffec99" stroke-width="1" fill="none"></path><path d="M0 0 C-6.17 7.16, -39.7 26.12, -37.02 42.93 C-34.34 59.75, -7.75 91.72, 16.08 100.89 C39.91 110.07, 85.52 87.55, 105.96 97.97 C126.4 108.4, 120.65 149.08, 138.73 163.45 C156.81 177.81, 190.82 184.7, 214.45 184.18 C238.08 183.66, 269.61 179.22, 280.53 160.34 C291.44 141.45, 284.18 98.23, 279.95 70.87 C275.72 43.51, 282.64 12.97, 255.15 -3.84 C227.65 -20.65, 157.49 -30.63, 114.96 -29.99 C72.44 -29.35, 19.16 -5, 0 0 M0 0 C-6.17 7.16, -39.7 26.12, -37.02 42.93 C-34.34 59.75, -7.75 91.72, 16.08 100.89 C39.91 110.07, 85.52 87.55, 105.96 97.97 C126.4 108.4, 120.65 149.08, 138.73 163.45 C156.81 177.81, 190.82 184.7, 214.45 184.18 C238.08 183.66, 269.61 179.22, 280.53 160.34 C291.44 141.45, 284.18 98.23, 279.95 70.87 C275.72 43.51, 282.64 12.97, 255.15 -3.84 C227.65 -20.65, 157.49 -30.63, 114.96 -29.99 C72.44 -29.35, 19.16 -5, 0 0" stroke="#1e1e1e" stroke-width="2" fill="none"></path></g></g><mask></mask><g transform="translate(366.45860557241826 122.47940129056667) rotate(0 39.481292724609375 12)"><text x="78.96258544921875" y="0" font-family="LocalFont, Segoe UI Emoji" font-size="20px" fill="#1e1e1e" text-anchor="end" style="white-space: pre;" direction="ltr" dominant-baseline="text-before-edge">Empty...</text></g><g transform="translate(213.65311999011737 219.63519809783043) rotate(0 62.002601623535156 12)"><text x="0" y="0" font-family="LocalFont, Segoe UI Emoji" font-size="20px" fill="#1e1e1e" text-anchor="start" style="white-space: pre;" direction="ltr" dominant-baseline="text-before-edge">LlamaGuard</text></g><g transform="translate(209.65096655772209 225.27566322244058) rotate(0 0.00004999999998744897 0.00004999999998744897)" stroke="none"><path fill="#1e1e1e" d="M 1.57,-1.57 Q 1.57,-1.57 1.77,-1.27 1.98,-0.98 2.09,-0.64 2.20,-0.29 2.19,0.05 2.18,0.41 2.05,0.75 1.93,1.09 1.70,1.37 1.48,1.65 1.18,1.84 0.87,2.04 0.52,2.12 0.18,2.21 -0.17,2.18 -0.53,2.15 -0.86,2.01 -1.19,1.87 -1.46,1.63 -1.73,1.39 -1.90,1.07 -2.08,0.76 -2.15,0.41 -2.21,0.05 -2.17,-0.29 -2.12,-0.65 -1.96,-0.97 -1.80,-1.29 -1.54,-1.54 -1.29,-1.80 -0.97,-1.96 -0.65,-2.12 -0.29,-2.17 0.06,-2.21 0.41,-2.15 0.76,-2.08 1.07,-1.90 1.39,-1.73 1.63,-1.46 1.87,-1.19 2.01,-0.86 2.15,-0.53 2.18,-0.17 2.21,0.18 2.12,0.52 2.03,0.87 1.84,1.18 1.65,1.48 1.37,1.70 1.09,1.93 0.75,2.05 0.41,2.18 0.05,2.19 -0.30,2.20 -0.64,2.09 -0.98,1.98 -1.27,1.77 -1.57,1.56 -1.57,1.57 -1.57,1.57 -1.73,1.35 -1.90,1.14 -2.01,0.90 -2.12,0.66 -2.16,0.39 -2.21,0.13 -2.20,-0.13 -2.18,-0.40 -2.10,-0.65 -2.02,-0.91 -1.88,-1.14 -1.74,-1.36 -1.55,-1.55 -1.36,-1.74 -1.14,-1.88 -0.91,-2.02 -0.65,-2.10 -0.40,-2.18 -0.13,-2.20 0.13,-2.21 0.39,-2.16 0.66,-2.12 0.90,-2.01 1.14,-1.90 1.35,-1.73 1.57,-1.57 1.57,-1.57 L 1.57,-1.57 Z"></path></g><g transform="translate(284.6239787034267 245.88721103273429) rotate(0 33.06697082519531 12)"><text x="0" y="0" font-family="LocalFont, Segoe UI Emoji" font-size="20px" fill="#1e1e1e" text-anchor="start" style="white-space: pre;" direction="ltr" dominant-baseline="text-before-edge">Lakera</text></g><g transform="translate(278.0111195638485 266.774959796953) rotate(0 0.00004999999998744897 0.00004999999998744897)" stroke="none"><path fill="#1e1e1e" d="M 1.57,-1.57 Q 1.57,-1.57 1.77,-1.27 1.98,-0.98 2.09,-0.64 2.20,-0.29 2.19,0.05 2.18,0.41 2.05,0.75 1.93,1.09 1.70,1.37 1.48,1.65 1.18,1.84 0.87,2.04 0.52,2.12 0.18,2.21 -0.17,2.18 -0.53,2.15 -0.86,2.01 -1.19,1.87 -1.46,1.63 -1.73,1.39 -1.90,1.07 -2.08,0.76 -2.15,0.41 -2.21,0.05 -2.17,-0.29 -2.12,-0.65 -1.96,-0.97 -1.80,-1.29 -1.54,-1.54 -1.29,-1.80 -0.97,-1.96 -0.65,-2.12 -0.29,-2.17 0.06,-2.21 0.41,-2.15 0.76,-2.08 1.07,-1.90 1.39,-1.73 1.63,-1.46 1.87,-1.19 2.01,-0.86 2.15,-0.53 2.18,-0.17 2.21,0.18 2.12,0.52 2.03,0.87 1.84,1.18 1.65,1.48 1.37,1.70 1.09,1.93 0.75,2.05 0.41,2.18 0.05,2.19 -0.30,2.20 -0.64,2.09 -0.98,1.98 -1.27,1.77 -1.57,1.56 -1.57,1.57 -1.57,1.57 -1.73,1.35 -1.90,1.14 -2.01,0.90 -2.12,0.66 -2.16,0.39 -2.21,0.13 -2.20,-0.13 -2.18,-0.40 -2.10,-0.65 -2.02,-0.91 -1.88,-1.14 -1.74,-1.36 -1.55,-1.55 -1.36,-1.74 -1.14,-1.88 -0.91,-2.02 -0.65,-2.10 -0.40,-2.18 -0.13,-2.20 0.13,-2.21 0.39,-2.16 0.66,-2.12 0.90,-2.01 1.14,-1.90 1.35,-1.73 1.57,-1.57 1.57,-1.57 L 1.57,-1.57 Z"></path></g><g transform="translate(312.227225949684 308.0009552053999) rotate(0 44.67993927001953 12)"><text x="44.67993927001953" y="0" font-family="LocalFont, Segoe UI Emoji" font-size="20px" fill="#1e1e1e" text-anchor="middle" style="white-space: pre;" direction="ltr" dominant-baseline="text-before-edge">LLM App</text></g><g transform="translate(493.1732955185462 308.0009552053999) rotate(0 59.160926818847656 12)"><text x="59.160926818847656" y="0" font-family="LocalFont, Segoe UI Emoji" font-size="20px" fill="#1e1e1e" text-anchor="middle" style="white-space: pre;" direction="ltr" dominant-baseline="text-before-edge">Multi-agent</text></g><g transform="translate(166.06067450826322 307.5009552053999) rotate(0 55.78828430175781 24)"><text x="55.78828430175781" y="0" font-family="LocalFont, Segoe UI Emoji" font-size="20px" fill="#1e1e1e" text-anchor="middle" style="white-space: pre;" direction="ltr" dominant-baseline="text-before-edge">Text</text><text x="55.78828430175781" y="24" font-family="LocalFont, Segoe UI Emoji" font-size="20px" fill="#1e1e1e" text-anchor="middle" style="white-space: pre;" direction="ltr" dominant-baseline="text-before-edge">Generation</text></g><g stroke-linecap="round" transform="translate(223.9314460111416 248.59572967129031) rotate(0 15.386853036662501 15.386853036662501)"><path d="M30.77 15.39 C30.77 16.28, 30.69 17.18, 30.54 18.06 C30.39 18.94, 30.15 19.81, 29.85 20.65 C29.54 21.49, 29.16 22.31, 28.71 23.08 C28.27 23.85, 27.75 24.6, 27.17 25.28 C26.6 25.96, 25.96 26.6, 25.28 27.17 C24.6 27.75, 23.85 28.27, 23.08 28.71 C22.31 29.16, 21.49 29.54, 20.65 29.85 C19.81 30.15, 18.94 30.39, 18.06 30.54 C17.18 30.69, 16.28 30.77, 15.39 30.77 C14.5 30.77, 13.59 30.69, 12.71 30.54 C11.84 30.39, 10.96 30.15, 10.12 29.85 C9.29 29.54, 8.46 29.16, 7.69 28.71 C6.92 28.27, 6.18 27.75, 5.5 27.17 C4.81 26.6, 4.17 25.96, 3.6 25.28 C3.03 24.6, 2.51 23.85, 2.06 23.08 C1.62 22.31, 1.23 21.49, 0.93 20.65 C0.62 19.81, 0.39 18.94, 0.23 18.06 C0.08 17.18, 0 16.28, 0 15.39 C0 14.5, 0.08 13.59, 0.23 12.71 C0.39 11.84, 0.62 10.96, 0.93 10.12 C1.23 9.29, 1.62 8.46, 2.06 7.69 C2.51 6.92, 3.03 6.18, 3.6 5.5 C4.17 4.81, 4.81 4.17, 5.5 3.6 C6.18 3.03, 6.92 2.51, 7.69 2.06 C8.46 1.62, 9.29 1.23, 10.12 0.93 C10.96 0.62, 11.84 0.39, 12.71 0.23 C13.59 0.08, 14.5 0, 15.39 0 C16.28 0, 17.18 0.08, 18.06 0.23 C18.94 0.39, 19.81 0.62, 20.65 0.93 C21.49 1.23, 22.31 1.62, 23.08 2.06 C23.85 2.51, 24.6 3.03, 25.28 3.6 C25.96 4.17, 26.6 4.81, 27.17 5.5 C27.75 6.18, 28.27 6.92, 28.71 7.69 C29.16 8.46, 29.54 9.29, 29.85 10.12 C30.15 10.96, 30.39 11.84, 30.54 12.71 C30.69 13.59, 30.73 14.94, 30.77 15.39 C30.81 15.83, 30.81 14.94, 30.77 15.39" stroke="none" stroke-width="0" fill="#96f2d7"></path><path d="M30.77 15.39 C30.77 16.28, 30.69 17.18, 30.54 18.06 C30.39 18.94, 30.15 19.81, 29.85 20.65 C29.54 21.49, 29.16 22.31, 28.71 23.08 C28.27 23.85, 27.75 24.6, 27.17 25.28 C26.6 25.96, 25.96 26.6, 25.28 27.17 C24.6 27.75, 23.85 28.27, 23.08 28.71 C22.31 29.16, 21.49 29.54, 20.65 29.85 C19.81 30.15, 18.94 30.39, 18.06 30.54 C17.18 30.69, 16.28 30.77, 15.39 30.77 C14.5 30.77, 13.59 30.69, 12.71 30.54 C11.84 30.39, 10.96 30.15, 10.12 29.85 C9.29 29.54, 8.46 29.16, 7.69 28.71 C6.92 28.27, 6.18 27.75, 5.5 27.17 C4.81 26.6, 4.17 25.96, 3.6 25.28 C3.03 24.6, 2.51 23.85, 2.06 23.08 C1.62 22.31, 1.23 21.49, 0.93 20.65 C0.62 19.81, 0.39 18.94, 0.23 18.06 C0.08 17.18, 0 16.28, 0 15.39 C0 14.5, 0.08 13.59, 0.23 12.71 C0.39 11.84, 0.62 10.96, 0.93 10.12 C1.23 9.29, 1.62 8.46, 2.06 7.69 C2.51 6.92, 3.03 6.18, 3.6 5.5 C4.17 4.81, 4.81 4.17, 5.5 3.6 C6.18 3.03, 6.92 2.51, 7.69 2.06 C8.46 1.62, 9.29 1.23, 10.12 0.93 C10.96 0.62, 11.84 0.39, 12.71 0.23 C13.59 0.08, 14.5 0, 15.39 0 C16.28 0, 17.18 0.08, 18.06 0.23 C18.94 0.39, 19.81 0.62, 20.65 0.93 C21.49 1.23, 22.31 1.62, 23.08 2.06 C23.85 2.51, 24.6 3.03, 25.28 3.6 C25.96 4.17, 26.6 4.81, 27.17 5.5 C27.75 6.18, 28.27 6.92, 28.71 7.69 C29.16 8.46, 29.54 9.29, 29.85 10.12 C30.15 10.96, 30.39 11.84, 30.54 12.71 C30.69 13.59, 30.73 14.94, 30.77 15.39 C30.81 15.83, 30.81 14.94, 30.77 15.39" stroke="#1e1e1e" stroke-width="2" fill="none"></path></g><g transform="translate(235.70830606684694 252.08909397421985) rotate(0 3.6099929809570312 12)"><text x="3.6099929809570312" y="0" font-family="LocalFont, Segoe UI Emoji" font-size="20px" fill="#1e1e1e" text-anchor="middle" style="white-space: pre;" direction="ltr" dominant-baseline="text-before-edge">1</text></g><g stroke-linecap="round" transform="translate(234.62636375537204 78.16994703071475) rotate(0 15.386853036662501 15.386853036662501)"><path d="M30.77 15.39 C30.77 16.28, 30.69 17.18, 30.54 18.06 C30.39 18.94, 30.15 19.81, 29.85 20.65 C29.54 21.49, 29.16 22.31, 28.71 23.08 C28.27 23.85, 27.75 24.6, 27.17 25.28 C26.6 25.96, 25.96 26.6, 25.28 27.17 C24.6 27.75, 23.85 28.27, 23.08 28.71 C22.31 29.16, 21.49 29.54, 20.65 29.85 C19.81 30.15, 18.94 30.39, 18.06 30.54 C17.18 30.69, 16.28 30.77, 15.39 30.77 C14.5 30.77, 13.59 30.69, 12.71 30.54 C11.84 30.39, 10.96 30.15, 10.12 29.85 C9.29 29.54, 8.46 29.16, 7.69 28.71 C6.92 28.27, 6.18 27.75, 5.5 27.17 C4.81 26.6, 4.17 25.96, 3.6 25.28 C3.03 24.6, 2.51 23.85, 2.06 23.08 C1.62 22.31, 1.23 21.49, 0.93 20.65 C0.62 19.81, 0.39 18.94, 0.23 18.06 C0.08 17.18, 0 16.28, 0 15.39 C0 14.5, 0.08 13.59, 0.23 12.71 C0.39 11.84, 0.62 10.96, 0.93 10.12 C1.23 9.29, 1.62 8.46, 2.06 7.69 C2.51 6.92, 3.03 6.18, 3.6 5.5 C4.17 4.81, 4.81 4.17, 5.5 3.6 C6.18 3.03, 6.92 2.51, 7.69 2.06 C8.46 1.62, 9.29 1.23, 10.12 0.93 C10.96 0.62, 11.84 0.39, 12.71 0.23 C13.59 0.08, 14.5 0, 15.39 0 C16.28 0, 17.18 0.08, 18.06 0.23 C18.94 0.39, 19.81 0.62, 20.65 0.93 C21.49 1.23, 22.31 1.62, 23.08 2.06 C23.85 2.51, 24.6 3.03, 25.28 3.6 C25.96 4.17, 26.6 4.81, 27.17 5.5 C27.75 6.18, 28.27 6.92, 28.71 7.69 C29.16 8.46, 29.54 9.29, 29.85 10.12 C30.15 10.96, 30.39 11.84, 30.54 12.71 C30.69 13.59, 30.73 14.94, 30.77 15.39 C30.81 15.83, 30.81 14.94, 30.77 15.39" stroke="none" stroke-width="0" fill="#d0bfff"></path><path d="M30.77 15.39 C30.77 16.28, 30.69 17.18, 30.54 18.06 C30.39 18.94, 30.15 19.81, 29.85 20.65 C29.54 21.49, 29.16 22.31, 28.71 23.08 C28.27 23.85, 27.75 24.6, 27.17 25.28 C26.6 25.96, 25.96 26.6, 25.28 27.17 C24.6 27.75, 23.85 28.27, 23.08 28.71 C22.31 29.16, 21.49 29.54, 20.65 29.85 C19.81 30.15, 18.94 30.39, 18.06 30.54 C17.18 30.69, 16.28 30.77, 15.39 30.77 C14.5 30.77, 13.59 30.69, 12.71 30.54 C11.84 30.39, 10.96 30.15, 10.12 29.85 C9.29 29.54, 8.46 29.16, 7.69 28.71 C6.92 28.27, 6.18 27.75, 5.5 27.17 C4.81 26.6, 4.17 25.96, 3.6 25.28 C3.03 24.6, 2.51 23.85, 2.06 23.08 C1.62 22.31, 1.23 21.49, 0.93 20.65 C0.62 19.81, 0.39 18.94, 0.23 18.06 C0.08 17.18, 0 16.28, 0 15.39 C0 14.5, 0.08 13.59, 0.23 12.71 C0.39 11.84, 0.62 10.96, 0.93 10.12 C1.23 9.29, 1.62 8.46, 2.06 7.69 C2.51 6.92, 3.03 6.18, 3.6 5.5 C4.17 4.81, 4.81 4.17, 5.5 3.6 C6.18 3.03, 6.92 2.51, 7.69 2.06 C8.46 1.62, 9.29 1.23, 10.12 0.93 C10.96 0.62, 11.84 0.39, 12.71 0.23 C13.59 0.08, 14.5 0, 15.39 0 C16.28 0, 17.18 0.08, 18.06 0.23 C18.94 0.39, 19.81 0.62, 20.65 0.93 C21.49 1.23, 22.31 1.62, 23.08 2.06 C23.85 2.51, 24.6 3.03, 25.28 3.6 C25.96 4.17, 26.6 4.81, 27.17 5.5 C27.75 6.18, 28.27 6.92, 28.71 7.69 C29.16 8.46, 29.54 9.29, 29.85 10.12 C30.15 10.96, 30.39 11.84, 30.54 12.71 C30.69 13.59, 30.73 14.94, 30.77 15.39 C30.81 15.83, 30.81 14.94, 30.77 15.39" stroke="#1e1e1e" stroke-width="2" fill="none"></path></g><g transform="translate(244.3332241162534 81.66331133364417) rotate(0 5.67999267578125 12)"><text x="5.67999267578125" y="0" font-family="LocalFont, Segoe UI Emoji" font-size="20px" fill="#1e1e1e" text-anchor="middle" style="white-space: pre;" direction="ltr" dominant-baseline="text-before-edge">2</text></g><g stroke-linecap="round" transform="translate(484.9737466804511 246.366202264065) rotate(0 15.386853036662501 15.386853036662501)"><path d="M30.77 15.39 C30.77 16.28, 30.69 17.18, 30.54 18.06 C30.39 18.94, 30.15 19.81, 29.85 20.65 C29.54 21.49, 29.16 22.31, 28.71 23.08 C28.27 23.85, 27.75 24.6, 27.17 25.28 C26.6 25.96, 25.96 26.6, 25.28 27.17 C24.6 27.75, 23.85 28.27, 23.08 28.71 C22.31 29.16, 21.49 29.54, 20.65 29.85 C19.81 30.15, 18.94 30.39, 18.06 30.54 C17.18 30.69, 16.28 30.77, 15.39 30.77 C14.5 30.77, 13.59 30.69, 12.71 30.54 C11.84 30.39, 10.96 30.15, 10.12 29.85 C9.29 29.54, 8.46 29.16, 7.69 28.71 C6.92 28.27, 6.18 27.75, 5.5 27.17 C4.81 26.6, 4.17 25.96, 3.6 25.28 C3.03 24.6, 2.51 23.85, 2.06 23.08 C1.62 22.31, 1.23 21.49, 0.93 20.65 C0.62 19.81, 0.39 18.94, 0.23 18.06 C0.08 17.18, 0 16.28, 0 15.39 C0 14.5, 0.08 13.59, 0.23 12.71 C0.39 11.84, 0.62 10.96, 0.93 10.12 C1.23 9.29, 1.62 8.46, 2.06 7.69 C2.51 6.92, 3.03 6.18, 3.6 5.5 C4.17 4.81, 4.81 4.17, 5.5 3.6 C6.18 3.03, 6.92 2.51, 7.69 2.06 C8.46 1.62, 9.29 1.23, 10.12 0.93 C10.96 0.62, 11.84 0.39, 12.71 0.23 C13.59 0.08, 14.5 0, 15.39 0 C16.28 0, 17.18 0.08, 18.06 0.23 C18.94 0.39, 19.81 0.62, 20.65 0.93 C21.49 1.23, 22.31 1.62, 23.08 2.06 C23.85 2.51, 24.6 3.03, 25.28 3.6 C25.96 4.17, 26.6 4.81, 27.17 5.5 C27.75 6.18, 28.27 6.92, 28.71 7.69 C29.16 8.46, 29.54 9.29, 29.85 10.12 C30.15 10.96, 30.39 11.84, 30.54 12.71 C30.69 13.59, 30.73 14.94, 30.77 15.39 C30.81 15.83, 30.81 14.94, 30.77 15.39" stroke="none" stroke-width="0" fill="#ffc9c9"></path><path d="M30.77 15.39 C30.77 16.28, 30.69 17.18, 30.54 18.06 C30.39 18.94, 30.15 19.81, 29.85 20.65 C29.54 21.49, 29.16 22.31, 28.71 23.08 C28.27 23.85, 27.75 24.6, 27.17 25.28 C26.6 25.96, 25.96 26.6, 25.28 27.17 C24.6 27.75, 23.85 28.27, 23.08 28.71 C22.31 29.16, 21.49 29.54, 20.65 29.85 C19.81 30.15, 18.94 30.39, 18.06 30.54 C17.18 30.69, 16.28 30.77, 15.39 30.77 C14.5 30.77, 13.59 30.69, 12.71 30.54 C11.84 30.39, 10.96 30.15, 10.12 29.85 C9.29 29.54, 8.46 29.16, 7.69 28.71 C6.92 28.27, 6.18 27.75, 5.5 27.17 C4.81 26.6, 4.17 25.96, 3.6 25.28 C3.03 24.6, 2.51 23.85, 2.06 23.08 C1.62 22.31, 1.23 21.49, 0.93 20.65 C0.62 19.81, 0.39 18.94, 0.23 18.06 C0.08 17.18, 0 16.28, 0 15.39 C0 14.5, 0.08 13.59, 0.23 12.71 C0.39 11.84, 0.62 10.96, 0.93 10.12 C1.23 9.29, 1.62 8.46, 2.06 7.69 C2.51 6.92, 3.03 6.18, 3.6 5.5 C4.17 4.81, 4.81 4.17, 5.5 3.6 C6.18 3.03, 6.92 2.51, 7.69 2.06 C8.46 1.62, 9.29 1.23, 10.12 0.93 C10.96 0.62, 11.84 0.39, 12.71 0.23 C13.59 0.08, 14.5 0, 15.39 0 C16.28 0, 17.18 0.08, 18.06 0.23 C18.94 0.39, 19.81 0.62, 20.65 0.93 C21.49 1.23, 22.31 1.62, 23.08 2.06 C23.85 2.51, 24.6 3.03, 25.28 3.6 C25.96 4.17, 26.6 4.81, 27.17 5.5 C27.75 6.18, 28.27 6.92, 28.71 7.69 C29.16 8.46, 29.54 9.29, 29.85 10.12 C30.15 10.96, 30.39 11.84, 30.54 12.71 C30.69 13.59, 30.73 14.94, 30.77 15.39 C30.81 15.83, 30.81 14.94, 30.77 15.39" stroke="#1e1e1e" stroke-width="2" fill="none"></path></g><g transform="translate(494.7206079568597 249.85956656699443) rotate(0 5.639991760253906 12)"><text x="5.639991760253906" y="0" font-family="LocalFont, Segoe UI Emoji" font-size="20px" fill="#1e1e1e" text-anchor="middle" style="white-space: pre;" direction="ltr" dominant-baseline="text-before-edge">3</text></g></svg>