<svg version="1.1" xmlns="http://www.w3.org/2000/svg" viewBox="0 0 1260.4437360438424 554.6873551776268" width="1260.4437360438424" height="554.6873551776268">
  <!-- svg-source:excalidraw -->
  
  <defs>
    <style class="style-fonts">
      @font-face {
        font-family: "Virgil";
        src: url("https://excalidraw.com/Virgil.woff2");
      }
      @font-face {
        font-family: "Cascadia";
        src: url("https://excalidraw.com/Cascadia.woff2");
      }
      @font-face {
        font-family: "Assistant";
        src: url("https://excalidraw.com/Assistant-Regular.woff2");
      }
    </style>
    
  </defs>
  <rect x="0" y="0" width="1260.4437360438424" height="554.6873551776268" fill="#ffffff"></rect><g stroke-linecap="round" transform="translate(10 484.68735517762684) rotate(0 127.67324252064304 30)"><path d="M15 0 C77.84 0, 140.67 0, 240.35 0 C250.35 0, 255.35 5, 255.35 15 C255.35 21.64, 255.35 28.27, 255.35 45 C255.35 55, 250.35 60, 240.35 60 C191.15 60, 141.96 60, 15 60 C5 60, 0 55, 0 45 C0 33.87, 0 22.74, 0 15 C0 5, 5 0, 15 0" stroke="none" stroke-width="0" fill="#e7f5ff"></path><path d="M15 0 C60.13 0, 105.27 0, 240.35 0 M15 0 C100.47 0, 185.94 0, 240.35 0 M240.35 0 C250.35 0, 255.35 5, 255.35 15 M240.35 0 C250.35 0, 255.35 5, 255.35 15 M255.35 15 C255.35 26.07, 255.35 37.14, 255.35 45 M255.35 15 C255.35 23.7, 255.35 32.4, 255.35 45 M255.35 45 C255.35 55, 250.35 60, 240.35 60 M255.35 45 C255.35 55, 250.35 60, 240.35 60 M240.35 60 C156.78 60, 73.21 60, 15 60 M240.35 60 C189.3 60, 138.25 60, 15 60 M15 60 C5 60, 0 55, 0 45 M15 60 C5 60, 0 55, 0 45 M0 45 C0 33.68, 0 22.36, 0 15 M0 45 C0 33.21, 0 21.42, 0 15 M0 15 C0 5, 5 0, 15 0 M0 15 C0 5, 5 0, 15 0" stroke="#1e1e1e" stroke-width="2" fill="none"></path></g><g transform="translate(20.3040179723032 490.68735517762684) rotate(0 117.36922454833984 24)"><text x="117.36922454833984" y="0" font-family="LocalFont, Segoe UI Emoji" font-size="20px" fill="#1e1e1e" text-anchor="middle" style="white-space: pre;" direction="ltr" dominant-baseline="text-before-edge">Monitoring Benchmark</text><text x="117.36922454833984" y="24" font-family="LocalFont, Segoe UI Emoji" font-size="20px" fill="#1e1e1e" text-anchor="middle" style="white-space: pre;" direction="ltr" dominant-baseline="text-before-edge">BELLS</text></g><g stroke-linecap="round" transform="translate(307.1509567341204 362.22954784929834) rotate(0 86.29770450480157 24)"><path d="M172.6 24 C172.6 24.96, 172.38 25.94, 171.97 26.89 C171.55 27.85, 170.92 28.81, 170.09 29.74 C169.26 30.68, 168.22 31.61, 166.99 32.51 C165.76 33.41, 164.32 34.3, 162.71 35.15 C161.1 36.01, 159.29 36.84, 157.32 37.63 C155.35 38.43, 153.19 39.19, 150.89 39.91 C148.59 40.64, 146.12 41.32, 143.52 41.96 C140.93 42.6, 138.17 43.2, 135.32 43.75 C132.47 44.3, 129.47 44.8, 126.4 45.25 C123.33 45.7, 120.14 46.1, 116.9 46.44 C113.66 46.78, 110.32 47.07, 106.95 47.3 C103.58 47.53, 100.14 47.71, 96.7 47.83 C93.26 47.94, 89.77 48, 86.3 48 C82.83 48, 79.34 47.94, 75.9 47.83 C72.45 47.71, 69.01 47.53, 65.65 47.3 C62.28 47.07, 58.94 46.78, 55.7 46.44 C52.45 46.1, 49.26 45.7, 46.19 45.25 C43.12 44.8, 40.13 44.3, 37.28 43.75 C34.42 43.2, 31.67 42.6, 29.07 41.96 C26.48 41.32, 24 40.64, 21.7 39.91 C19.4 39.19, 17.25 38.43, 15.28 37.63 C13.31 36.84, 11.5 36.01, 9.88 35.15 C8.27 34.3, 6.84 33.41, 5.61 32.51 C4.38 31.61, 3.34 30.68, 2.51 29.74 C1.68 28.81, 1.05 27.85, 0.63 26.89 C0.21 25.94, 0 24.96, 0 24 C0 23.04, 0.21 22.06, 0.63 21.11 C1.05 20.15, 1.68 19.19, 2.51 18.26 C3.34 17.32, 4.38 16.39, 5.61 15.49 C6.84 14.59, 8.27 13.7, 9.88 12.85 C11.5 11.99, 13.31 11.16, 15.28 10.37 C17.25 9.57, 19.4 8.81, 21.7 8.09 C24 7.36, 26.48 6.68, 29.07 6.04 C31.67 5.4, 34.42 4.8, 37.28 4.25 C40.13 3.7, 43.12 3.2, 46.19 2.75 C49.26 2.3, 52.45 1.9, 55.7 1.56 C58.94 1.22, 62.28 0.93, 65.65 0.7 C69.01 0.47, 72.45 0.29, 75.9 0.17 C79.34 0.06, 82.83 0, 86.3 0 C89.77 0, 93.26 0.06, 96.7 0.17 C100.14 0.29, 103.58 0.47, 106.95 0.7 C110.32 0.93, 113.66 1.22, 116.9 1.56 C120.14 1.9, 123.33 2.3, 126.4 2.75 C129.47 3.2, 132.47 3.7, 135.32 4.25 C138.17 4.8, 140.93 5.4, 143.52 6.04 C146.12 6.68, 148.59 7.36, 150.89 8.09 C153.19 8.81, 155.35 9.57, 157.32 10.37 C159.29 11.16, 161.1 11.99, 162.71 12.85 C164.32 13.7, 165.76 14.59, 166.99 15.49 C168.22 16.39, 169.26 17.32, 170.09 18.26 C170.92 19.19, 171.55 20.15, 171.97 21.11 C172.38 22.06, 172.6 23.04, 172.6 24" stroke="none" stroke-width="0" fill="#ffec99"></path><path d="M172.6 24 C172.6 24.96, 172.38 25.94, 171.97 26.89 C171.55 27.85, 170.92 28.81, 170.09 29.74 C169.26 30.68, 168.22 31.61, 166.99 32.51 C165.76 33.41, 164.32 34.3, 162.71 35.15 C161.1 36.01, 159.29 36.84, 157.32 37.63 C155.35 38.43, 153.19 39.19, 150.89 39.91 C148.59 40.64, 146.12 41.32, 143.52 41.96 C140.93 42.6, 138.17 43.2, 135.32 43.75 C132.47 44.3, 129.47 44.8, 126.4 45.25 C123.33 45.7, 120.14 46.1, 116.9 46.44 C113.66 46.78, 110.32 47.07, 106.95 47.3 C103.58 47.53, 100.14 47.71, 96.7 47.83 C93.26 47.94, 89.77 48, 86.3 48 C82.83 48, 79.34 47.94, 75.9 47.83 C72.45 47.71, 69.01 47.53, 65.65 47.3 C62.28 47.07, 58.94 46.78, 55.7 46.44 C52.45 46.1, 49.26 45.7, 46.19 45.25 C43.12 44.8, 40.13 44.3, 37.28 43.75 C34.42 43.2, 31.67 42.6, 29.07 41.96 C26.48 41.32, 24 40.64, 21.7 39.91 C19.4 39.19, 17.25 38.43, 15.28 37.63 C13.31 36.84, 11.5 36.01, 9.88 35.15 C8.27 34.3, 6.84 33.41, 5.61 32.51 C4.38 31.61, 3.34 30.68, 2.51 29.74 C1.68 28.81, 1.05 27.85, 0.63 26.89 C0.21 25.94, 0 24.96, 0 24 C0 23.04, 0.21 22.06, 0.63 21.11 C1.05 20.15, 1.68 19.19, 2.51 18.26 C3.34 17.32, 4.38 16.39, 5.61 15.49 C6.84 14.59, 8.27 13.7, 9.88 12.85 C11.5 11.99, 13.31 11.16, 15.28 10.37 C17.25 9.57, 19.4 8.81, 21.7 8.09 C24 7.36, 26.48 6.68, 29.07 6.04 C31.67 5.4, 34.42 4.8, 37.28 4.25 C40.13 3.7, 43.12 3.2, 46.19 2.75 C49.26 2.3, 52.45 1.9, 55.7 1.56 C58.94 1.22, 62.28 0.93, 65.65 0.7 C69.01 0.47, 72.45 0.29, 75.9 0.17 C79.34 0.06, 82.83 0, 86.3 0 C89.77 0, 93.26 0.06, 96.7 0.17 C100.14 0.29, 103.58 0.47, 106.95 0.7 C110.32 0.93, 113.66 1.22, 116.9 1.56 C120.14 1.9, 123.33 2.3, 126.4 2.75 C129.47 3.2, 132.47 3.7, 135.32 4.25 C138.17 4.8, 140.93 5.4, 143.52 6.04 C146.12 6.68, 148.59 7.36, 150.89 8.09 C153.19 8.81, 155.35 9.57, 157.32 10.37 C159.29 11.16, 161.1 11.99, 162.71 12.85 C164.32 13.7, 165.76 14.59, 166.99 15.49 C168.22 16.39, 169.26 17.32, 170.09 18.26 C170.92 19.19, 171.55 20.15, 171.97 21.11 C172.38 22.06, 172.6 23.04, 172.6 24" stroke="#1e1e1e" stroke-width="2" fill="none"></path></g><g transform="translate(337.78302539612287 374.2589851008213) rotate(0 55.643943786621094 12)"><text x="55.643943786621094" y="0" font-family="LocalFont, Segoe UI Emoji" font-size="20px" fill="#1e1e1e" text-anchor="middle" style="white-space: pre;" direction="ltr" dominant-baseline="text-before-edge">Monitoring</text></g><g stroke-linecap="round"><g transform="translate(240.8839555176587 386.22954784929834) rotate(0 29.18383085130506 0)"><path d="M0 0 C9.73 0, 48.64 0, 58.37 0 M0 0 C9.73 0, 48.64 0, 58.37 0" stroke="#1e1e1e" stroke-width="2" fill="none"></path></g><g transform="translate(240.8839555176587 386.22954784929834) rotate(0 29.18383085130506 0)"><path d="M34.88 8.55 C42.98 5.6, 51.08 2.65, 58.37 0 M34.88 8.55 C42.56 5.75, 50.25 2.95, 58.37 0" stroke="#1e1e1e" stroke-width="2" fill="none"></path></g><g transform="translate(240.8839555176587 386.22954784929834) rotate(0 29.18383085130506 0)"><path d="M34.88 -8.55 C42.98 -5.6, 51.08 -2.65, 58.37 0 M34.88 -8.55 C42.56 -5.75, 50.25 -2.95, 58.37 0" stroke="#1e1e1e" stroke-width="2" fill="none"></path></g></g><mask></mask><g stroke-linecap="round"><g transform="translate(491.01437313378756 386.5745293776531) rotate(0 23.64879842510868 -0.3889302881098047)"><path d="M0 0 C7.88 -0.13, 39.41 -0.65, 47.3 -0.78 M0 0 C7.88 -0.13, 39.41 -0.65, 47.3 -0.78" stroke="#1e1e1e" stroke-width="2" fill="none"></path></g><g transform="translate(491.01437313378756 386.5745293776531) rotate(0 23.64879842510868 -0.3889302881098047)"><path d="M25.21 7.68 C29.69 5.96, 34.16 4.25, 47.3 -0.78 M25.21 7.68 C30.02 5.83, 34.83 3.99, 47.3 -0.78" stroke="#1e1e1e" stroke-width="2" fill="none"></path></g><g transform="translate(491.01437313378756 386.5745293776531) rotate(0 23.64879842510868 -0.3889302881098047)"><path d="M24.94 -8.5 C29.47 -6.94, 34.01 -5.37, 47.3 -0.78 M24.94 -8.5 C29.81 -6.82, 34.68 -5.14, 47.3 -0.78" stroke="#1e1e1e" stroke-width="2" fill="none"></path></g></g><mask></mask><g transform="translate(542.4848287160657 374.22954784929834) rotate(0 34.53997039794922 12)"><text x="34.53997039794922" y="0" font-family="LocalFont, Segoe UI Emoji" font-size="20px" fill="#1e1e1e" text-anchor="middle" style="white-space: pre;" direction="ltr" dominant-baseline="text-before-edge">Report</text></g><g stroke-linecap="round"><g transform="translate(137.67324252064304 475.5008574222479) rotate(0 0 -16.827226440676554)"><path d="M0 0 C0 -5.61, 0 -28.05, 0 -33.65 M0 0 C0 -5.61, 0 -28.05, 0 -33.65" stroke="#1e1e1e" stroke-width="2" fill="none"></path></g><g transform="translate(137.67324252064304 475.5008574222479) rotate(0 0 -16.827226440676554)"><path d="M5.76 -17.84 C4.04 -22.55, 2.33 -27.26, 0 -33.65 M5.76 -17.84 C3.75 -23.35, 1.75 -28.86, 0 -33.65" stroke="#1e1e1e" stroke-width="2" fill="none"></path></g><g transform="translate(137.67324252064304 475.5008574222479) rotate(0 0 -16.827226440676554)"><path d="M-5.76 -17.84 C-4.04 -22.55, -2.33 -27.26, 0 -33.65 M-5.76 -17.84 C-3.75 -23.35, -1.75 -28.86, 0 -33.65" stroke="#1e1e1e" stroke-width="2" fill="none"></path></g></g><mask></mask><g stroke-linecap="round"><g transform="translate(278.12838086183183 514.6858955963976) rotate(0 52.448190330944726 0.001459581229255491)"><path d="M0 0 C17.48 0, 87.41 0, 104.9 0 M0 0 C17.48 0, 87.41 0, 104.9 0" stroke="#1e1e1e" stroke-width="2" fill="none"></path></g><g transform="translate(278.12838086183183 514.6858955963976) rotate(0 52.448190330944726 0.001459581229255491)"><path d="M81.4 8.55 C89.68 5.54, 97.95 2.53, 104.9 0 M81.4 8.55 C90.23 5.34, 99.06 2.13, 104.9 0" stroke="#1e1e1e" stroke-width="2" fill="none"></path></g><g transform="translate(278.12838086183183 514.6858955963976) rotate(0 52.448190330944726 0.001459581229255491)"><path d="M81.4 -8.55 C89.68 -5.54, 97.95 -2.53, 104.9 0 M81.4 -8.55 C90.23 -5.34, 99.06 -2.12, 104.9 0" stroke="#1e1e1e" stroke-width="2" fill="none"></path></g></g><mask></mask><g transform="translate(260.60617208618214 10) rotate(0 105.60845947265625 21.600000000000023)"><text x="0" y="0" font-family="LocalFont, Segoe UI Emoji" font-size="36px" fill="#1e1e1e" text-anchor="start" style="white-space: pre;" direction="ltr" dominant-baseline="text-before-edge">At test time</text></g><g stroke-linecap="round" transform="translate(49.35774690870335 231.56961013388513) rotate(0 88.3154956119397 17)"><path d="M8.5 0 C65.95 0, 123.41 0, 168.13 0 C173.8 0, 176.63 2.83, 176.63 8.5 C176.63 12.21, 176.63 15.92, 176.63 25.5 C176.63 31.17, 173.8 34, 168.13 34 C129.77 34, 91.41 34, 8.5 34 C2.83 34, 0 31.17, 0 25.5 C0 21, 0 16.5, 0 8.5 C0 2.83, 2.83 0, 8.5 0" stroke="none" stroke-width="0" fill="#e7f5ff"></path><path d="M8.5 0 C68.27 0, 128.03 0, 168.13 0 M8.5 0 C41.91 0, 75.31 0, 168.13 0 M168.13 0 C173.8 0, 176.63 2.83, 176.63 8.5 M168.13 0 C173.8 0, 176.63 2.83, 176.63 8.5 M176.63 8.5 C176.63 12.94, 176.63 17.37, 176.63 25.5 M176.63 8.5 C176.63 13.69, 176.63 18.89, 176.63 25.5 M176.63 25.5 C176.63 31.17, 173.8 34, 168.13 34 M176.63 25.5 C176.63 31.17, 173.8 34, 168.13 34 M168.13 34 C132.85 34, 97.56 34, 8.5 34 M168.13 34 C131.59 34, 95.05 34, 8.5 34 M8.5 34 C2.83 34, 0 31.17, 0 25.5 M8.5 34 C2.83 34, 0 31.17, 0 25.5 M0 25.5 C0 19.42, 0 13.35, 0 8.5 M0 25.5 C0 22, 0 18.5, 0 8.5 M0 8.5 C0 2.83, 2.83 0, 8.5 0 M0 8.5 C0 2.83, 2.83 0, 8.5 0" stroke="#1e1e1e" stroke-width="2" fill="none"></path></g><g transform="translate(54.61799044544773 236.56961013388513) rotate(0 83.05525207519531 12)"><text x="83.05525207519531" y="0" font-family="LocalFont, Segoe UI Emoji" font-size="20px" fill="#1e1e1e" text-anchor="middle" style="white-space: pre;" direction="ltr" dominant-baseline="text-before-edge">LLM Benchmark</text></g><g stroke-linecap="round" transform="translate(305.2415387120859 85.57646923984339) rotate(0 46.91215102535227 49.79326922107316)"><path d="M93.82 49.79 C93.82 51.96, 93.69 54.14, 93.42 56.29 C93.16 58.44, 92.75 60.59, 92.23 62.68 C91.7 64.77, 91.03 66.85, 90.25 68.85 C89.47 70.85, 88.56 72.81, 87.54 74.69 C86.52 76.57, 85.37 78.39, 84.13 80.11 C82.89 81.82, 81.53 83.47, 80.08 85 C78.64 86.53, 77.09 87.98, 75.47 89.3 C73.85 90.62, 72.14 91.83, 70.37 92.92 C68.6 94, 66.75 94.97, 64.86 95.8 C62.98 96.63, 61.03 97.33, 59.05 97.89 C57.08 98.45, 55.06 98.88, 53.04 99.16 C51.01 99.44, 48.95 99.59, 46.91 99.59 C44.87 99.59, 42.81 99.44, 40.79 99.16 C38.77 98.88, 36.74 98.45, 34.77 97.89 C32.8 97.33, 30.85 96.63, 28.96 95.8 C27.07 94.97, 25.22 94, 23.46 92.92 C21.69 91.83, 19.97 90.62, 18.35 89.3 C16.73 87.98, 15.18 86.53, 13.74 85 C12.3 83.47, 10.94 81.82, 9.69 80.11 C8.45 78.39, 7.31 76.57, 6.29 74.69 C5.26 72.81, 4.35 70.85, 3.57 68.85 C2.79 66.85, 2.13 64.77, 1.6 62.68 C1.07 60.59, 0.67 58.44, 0.4 56.29 C0.13 54.14, 0 51.96, 0 49.79 C0 47.63, 0.13 45.44, 0.4 43.29 C0.67 41.15, 1.07 39, 1.6 36.91 C2.13 34.81, 2.79 32.74, 3.57 30.74 C4.35 28.74, 5.26 26.77, 6.29 24.9 C7.31 23.02, 8.45 21.2, 9.69 19.48 C10.94 17.76, 12.3 16.12, 13.74 14.58 C15.18 13.05, 16.73 11.61, 18.35 10.29 C19.97 8.97, 21.69 7.75, 23.46 6.67 C25.22 5.59, 27.07 4.62, 28.96 3.79 C30.85 2.96, 32.8 2.26, 34.77 1.7 C36.74 1.14, 38.77 0.71, 40.79 0.43 C42.81 0.14, 44.87 0, 46.91 0 C48.95 0, 51.01 0.14, 53.04 0.43 C55.06 0.71, 57.08 1.14, 59.05 1.7 C61.03 2.26, 62.98 2.96, 64.86 3.79 C66.75 4.62, 68.6 5.59, 70.37 6.67 C72.14 7.75, 73.85 8.97, 75.47 10.29 C77.09 11.61, 78.64 13.05, 80.08 14.58 C81.53 16.12, 82.89 17.76, 84.13 19.48 C85.37 21.2, 86.52 23.02, 87.54 24.9 C88.56 26.77, 89.47 28.74, 90.25 30.74 C91.03 32.74, 91.7 34.81, 92.23 36.91 C92.75 39, 93.16 41.15, 93.42 43.29 C93.69 45.44, 93.76 48.71, 93.82 49.79 C93.89 50.88, 93.89 48.71, 93.82 49.79" stroke="none" stroke-width="0" fill="#ffc9c9"></path><path d="M93.82 49.79 C93.82 51.96, 93.69 54.14, 93.42 56.29 C93.16 58.44, 92.75 60.59, 92.23 62.68 C91.7 64.77, 91.03 66.85, 90.25 68.85 C89.47 70.85, 88.56 72.81, 87.54 74.69 C86.52 76.57, 85.37 78.39, 84.13 80.11 C82.89 81.82, 81.53 83.47, 80.08 85 C78.64 86.53, 77.09 87.98, 75.47 89.3 C73.85 90.62, 72.14 91.83, 70.37 92.92 C68.6 94, 66.75 94.97, 64.86 95.8 C62.98 96.63, 61.03 97.33, 59.05 97.89 C57.08 98.45, 55.06 98.88, 53.04 99.16 C51.01 99.44, 48.95 99.59, 46.91 99.59 C44.87 99.59, 42.81 99.44, 40.79 99.16 C38.77 98.88, 36.74 98.45, 34.77 97.89 C32.8 97.33, 30.85 96.63, 28.96 95.8 C27.07 94.97, 25.22 94, 23.46 92.92 C21.69 91.83, 19.97 90.62, 18.35 89.3 C16.73 87.98, 15.18 86.53, 13.74 85 C12.3 83.47, 10.94 81.82, 9.69 80.11 C8.45 78.39, 7.31 76.57, 6.29 74.69 C5.26 72.81, 4.35 70.85, 3.57 68.85 C2.79 66.85, 2.13 64.77, 1.6 62.68 C1.07 60.59, 0.67 58.44, 0.4 56.29 C0.13 54.14, 0 51.96, 0 49.79 C0 47.63, 0.13 45.44, 0.4 43.29 C0.67 41.15, 1.07 39, 1.6 36.91 C2.13 34.81, 2.79 32.74, 3.57 30.74 C4.35 28.74, 5.26 26.77, 6.29 24.9 C7.31 23.02, 8.45 21.2, 9.69 19.48 C10.94 17.76, 12.3 16.12, 13.74 14.58 C15.18 13.05, 16.73 11.61, 18.35 10.29 C19.97 8.97, 21.69 7.75, 23.46 6.67 C25.22 5.59, 27.07 4.62, 28.96 3.79 C30.85 2.96, 32.8 2.26, 34.77 1.7 C36.74 1.14, 38.77 0.71, 40.79 0.43 C42.81 0.14, 44.87 0, 46.91 0 C48.95 0, 51.01 0.14, 53.04 0.43 C55.06 0.71, 57.08 1.14, 59.05 1.7 C61.03 2.26, 62.98 2.96, 64.86 3.79 C66.75 4.62, 68.6 5.59, 70.37 6.67 C72.14 7.75, 73.85 8.97, 75.47 10.29 C77.09 11.61, 78.64 13.05, 80.08 14.58 C81.53 16.12, 82.89 17.76, 84.13 19.48 C85.37 21.2, 86.52 23.02, 87.54 24.9 C88.56 26.77, 89.47 28.74, 90.25 30.74 C91.03 32.74, 91.7 34.81, 92.23 36.91 C92.75 39, 93.16 41.15, 93.42 43.29 C93.69 45.44, 93.76 48.71, 93.82 49.79 C93.89 50.88, 93.89 48.71, 93.82 49.79" stroke="#1e1e1e" stroke-width="2" fill="none"></path></g><g transform="translate(330.6518183138876 111.16058013724842) rotate(0 21.329971313476562 24)"><text x="21.329971313476562" y="0" font-family="LocalFont, Segoe UI Emoji" font-size="20px" fill="#1e1e1e" text-anchor="middle" style="white-space: pre;" direction="ltr" dominant-baseline="text-before-edge">LLM</text><text x="21.329971313476562" y="24" font-family="LocalFont, Segoe UI Emoji" font-size="20px" fill="#1e1e1e" text-anchor="middle" style="white-space: pre;" direction="ltr" dominant-baseline="text-before-edge">App</text></g><g stroke-linecap="round"><g transform="translate(184.75233977816515 135.59060686064004) rotate(0 53.578252276779494 0)"><path d="M0 0 C17.86 0, 89.3 0, 107.16 0 M0 0 C17.86 0, 89.3 0, 107.16 0" stroke="#1e1e1e" stroke-width="2" fill="none"></path></g><g transform="translate(184.75233977816515 135.59060686064004) rotate(0 53.578252276779494 0)"><path d="M83.66 8.55 C91.48 5.71, 99.29 2.86, 107.16 0 M83.66 8.55 C89.52 6.42, 95.38 4.29, 107.16 0" stroke="#1e1e1e" stroke-width="2" fill="none"></path></g><g transform="translate(184.75233977816515 135.59060686064004) rotate(0 53.578252276779494 0)"><path d="M83.66 -8.55 C91.48 -5.71, 99.29 -2.86, 107.16 0 M83.66 -8.55 C89.52 -6.42, 95.38 -4.29, 107.16 0" stroke="#1e1e1e" stroke-width="2" fill="none"></path></g></g><mask></mask><g stroke-linecap="round"><g transform="translate(411.28217045759675 135.37027509052655) rotate(0 55.82998045801082 0.12497180056027446)"><path d="M0 0 C18.61 0.04, 93.05 0.21, 111.66 0.25 M0 0 C18.61 0.04, 93.05 0.21, 111.66 0.25" stroke="#1e1e1e" stroke-width="2" fill="none"></path></g><g transform="translate(411.28217045759675 135.37027509052655) rotate(0 55.82998045801082 0.12497180056027446)"><path d="M88.15 8.75 C93.9 6.67, 99.66 4.59, 111.66 0.25 M88.15 8.75 C95.8 5.98, 103.45 3.22, 111.66 0.25" stroke="#1e1e1e" stroke-width="2" fill="none"></path></g><g transform="translate(411.28217045759675 135.37027509052655) rotate(0 55.82998045801082 0.12497180056027446)"><path d="M88.19 -8.35 C93.93 -6.25, 99.68 -4.14, 111.66 0.25 M88.19 -8.35 C95.83 -5.55, 103.47 -2.75, 111.66 0.25" stroke="#1e1e1e" stroke-width="2" fill="none"></path></g></g><mask></mask><g stroke-linecap="round"><g transform="translate(137.67324252064327 219.75044024209774) rotate(0 -1.1368683772161603e-13 -27.543541671579987)"><path d="M0 0 C0 -9.18, 0 -45.91, 0 -55.09 M0 0 C0 -9.18, 0 -45.91, 0 -55.09" stroke="#1e1e1e" stroke-width="2" fill="none"></path></g><g transform="translate(137.67324252064327 219.75044024209774) rotate(0 -1.1368683772161603e-13 -27.543541671579987)"><path d="M8.55 -31.59 C5.18 -40.85, 1.82 -50.1, 0 -55.09 M8.55 -31.59 C5.53 -39.89, 2.51 -48.19, 0 -55.09" stroke="#1e1e1e" stroke-width="2" fill="none"></path></g><g transform="translate(137.67324252064327 219.75044024209774) rotate(0 -1.1368683772161603e-13 -27.543541671579987)"><path d="M-8.55 -31.59 C-5.18 -40.85, -1.82 -50.1, 0 -55.09 M-8.55 -31.59 C-5.53 -39.89, -2.51 -48.19, 0 -55.09" stroke="#1e1e1e" stroke-width="2" fill="none"></path></g></g><mask></mask><g stroke-linecap="round"><g transform="translate(240.03028412695903 247.02122214539258) rotate(0 69.846369674519 -0.0007696401344219339)"><path d="M0 0 C23.28 0, 116.41 0, 139.69 0 M0 0 C23.28 0, 116.41 0, 139.69 0" stroke="#1e1e1e" stroke-width="2" fill="none"></path></g><g transform="translate(240.03028412695903 247.02122214539258) rotate(0 69.846369674519 -0.0007696401344219339)"><path d="M116.2 8.55 C124.55 5.51, 132.91 2.47, 139.69 0 M116.2 8.55 C122.48 6.26, 128.76 3.98, 139.69 0" stroke="#1e1e1e" stroke-width="2" fill="none"></path></g><g transform="translate(240.03028412695903 247.02122214539258) rotate(0 69.846369674519 -0.0007696401344219339)"><path d="M116.2 -8.55 C124.55 -5.51, 132.91 -2.47, 139.69 0 M116.2 -8.55 C122.48 -6.27, 128.76 -3.98, 139.69 0" stroke="#1e1e1e" stroke-width="2" fill="none"></path></g></g><mask></mask><g transform="translate(392.95851167468754 236.56961013388513) rotate(0 100.55224609375 12)"><text x="100.55224609375" y="0" font-family="LocalFont, Segoe UI Emoji" font-size="20px" fill="#1e1e1e" text-anchor="middle" style="white-space: pre;" direction="ltr" dominant-baseline="text-before-edge">Evaluation Function</text></g><g stroke-linecap="round"><g transform="translate(550.5922618814998 160.5366524469971) rotate(0 -31.45594230262759 33.791452930569676)"><path d="M0 0 C-10.49 11.26, -52.43 56.32, -62.91 67.58 M0 0 C-10.49 11.26, -52.43 56.32, -62.91 67.58" stroke="#1e1e1e" stroke-width="2" fill="none"></path></g><g transform="translate(550.5922618814998 160.5366524469971) rotate(0 -31.45594230262759 33.791452930569676)"><path d="M-53.16 44.56 C-56.61 52.71, -60.06 60.85, -62.91 67.58 M-53.16 44.56 C-55.79 50.77, -58.42 56.98, -62.91 67.58" stroke="#1e1e1e" stroke-width="2" fill="none"></path></g><g transform="translate(550.5922618814998 160.5366524469971) rotate(0 -31.45594230262759 33.791452930569676)"><path d="M-40.65 56.21 C-48.52 60.24, -56.4 64.26, -62.91 67.58 M-40.65 56.21 C-46.65 59.28, -52.65 62.34, -62.91 67.58" stroke="#1e1e1e" stroke-width="2" fill="none"></path></g></g><mask></mask><g stroke-linecap="round"><g transform="translate(602.3786127935405 247.7214460348457) rotate(0 28.86948340659751 -0.2518218015374032)"><path d="M0 0 C9.62 -0.08, 48.12 -0.42, 57.74 -0.5 M0 0 C9.62 -0.08, 48.12 -0.42, 57.74 -0.5" stroke="#1e1e1e" stroke-width="2" fill="none"></path></g><g transform="translate(602.3786127935405 247.7214460348457) rotate(0 28.86948340659751 -0.2518218015374032)"><path d="M34.32 8.25 C42.14 5.33, 49.96 2.4, 57.74 -0.5 M34.32 8.25 C43.54 4.8, 52.76 1.36, 57.74 -0.5" stroke="#1e1e1e" stroke-width="2" fill="none"></path></g><g transform="translate(602.3786127935405 247.7214460348457) rotate(0 28.86948340659751 -0.2518218015374032)"><path d="M34.17 -8.85 C42.04 -6.06, 49.91 -3.28, 57.74 -0.5 M34.17 -8.85 C43.45 -5.56, 52.73 -2.28, 57.74 -0.5" stroke="#1e1e1e" stroke-width="2" fill="none"></path></g></g><mask></mask><g transform="translate(668.2975855123937 236.56961013388513) rotate(0 27.88397216796875 12)"><text x="27.88397216796875" y="0" font-family="LocalFont, Segoe UI Emoji" font-size="20px" fill="#1e1e1e" text-anchor="middle" style="white-space: pre;" direction="ltr" dominant-baseline="text-before-edge">Score</text></g><g stroke-linecap="round" transform="translate(104.08690704708124 117.86973846091655) rotate(0 33.5863354735618 17.5)"><path d="M8.75 0 C21.2 0, 33.65 0, 58.42 0 C64.26 0, 67.17 2.92, 67.17 8.75 C67.17 14.45, 67.17 20.16, 67.17 26.25 C67.17 32.08, 64.26 35, 58.42 35 C39.97 35, 21.51 35, 8.75 35 C2.92 35, 0 32.08, 0 26.25 C0 20.19, 0 14.13, 0 8.75 C0 2.92, 2.92 0, 8.75 0" stroke="none" stroke-width="0" fill="#fff4e6"></path><path d="M8.75 0 C22.2 0, 35.64 0, 58.42 0 M8.75 0 C21.44 0, 34.13 0, 58.42 0 M58.42 0 C64.26 0, 67.17 2.92, 67.17 8.75 M58.42 0 C64.26 0, 67.17 2.92, 67.17 8.75 M67.17 8.75 C67.17 15.69, 67.17 22.64, 67.17 26.25 M67.17 8.75 C67.17 14.83, 67.17 20.9, 67.17 26.25 M67.17 26.25 C67.17 32.08, 64.26 35, 58.42 35 M67.17 26.25 C67.17 32.08, 64.26 35, 58.42 35 M58.42 35 C42.33 35, 26.23 35, 8.75 35 M58.42 35 C41.94 35, 25.45 35, 8.75 35 M8.75 35 C2.92 35, 0 32.08, 0 26.25 M8.75 35 C2.92 35, 0 32.08, 0 26.25 M0 26.25 C0 19.7, 0 13.15, 0 8.75 M0 26.25 C0 20, 0 13.76, 0 8.75 M0 8.75 C0 2.92, 2.92 0, 8.75 0 M0 8.75 C0 2.92, 2.92 0, 8.75 0" stroke="#f08c00" stroke-width="2" fill="none"></path></g><g transform="translate(110.33326907093601 123.36973846091655) rotate(0 27.33997344970703 12)"><text x="27.33997344970703" y="0" font-family="LocalFont, Segoe UI Emoji" font-size="20px" fill="#1e1e1e" text-anchor="middle" style="white-space: pre;" direction="ltr" dominant-baseline="text-before-edge">Input</text></g><g stroke-linecap="round" transform="translate(534.5197545058454 118.36973846091655) rotate(0 41.912112026344744 17)"><path d="M8.5 0 C28.03 0, 47.56 0, 75.32 0 C80.99 0, 83.82 2.83, 83.82 8.5 C83.82 14.81, 83.82 21.12, 83.82 25.5 C83.82 31.17, 80.99 34, 75.32 34 C60.67 34, 46.01 34, 8.5 34 C2.83 34, 0 31.17, 0 25.5 C0 21.66, 0 17.81, 0 8.5 C0 2.83, 2.83 0, 8.5 0" stroke="none" stroke-width="0" fill="#fff4e6"></path><path d="M8.5 0 C28.25 0, 48 0, 75.32 0 M8.5 0 C33.52 0, 58.53 0, 75.32 0 M75.32 0 C80.99 0, 83.82 2.83, 83.82 8.5 M75.32 0 C80.99 0, 83.82 2.83, 83.82 8.5 M83.82 8.5 C83.82 13.65, 83.82 18.8, 83.82 25.5 M83.82 8.5 C83.82 13.92, 83.82 19.35, 83.82 25.5 M83.82 25.5 C83.82 31.17, 80.99 34, 75.32 34 M83.82 25.5 C83.82 31.17, 80.99 34, 75.32 34 M75.32 34 C58.25 34, 41.18 34, 8.5 34 M75.32 34 C57.66 34, 40 34, 8.5 34 M8.5 34 C2.83 34, 0 31.17, 0 25.5 M8.5 34 C2.83 34, 0 31.17, 0 25.5 M0 25.5 C0 19.02, 0 12.54, 0 8.5 M0 25.5 C0 19.87, 0 14.23, 0 8.5 M0 8.5 C0 2.83, 2.83 0, 8.5 0 M0 8.5 C0 2.83, 2.83 0, 8.5 0" stroke="#2f9e44" stroke-width="2" fill="none"></path></g><g transform="translate(539.7019013222291 123.36973846091655) rotate(0 36.72996520996094 12)"><text x="36.72996520996094" y="0" font-family="LocalFont, Segoe UI Emoji" font-size="20px" fill="#1e1e1e" text-anchor="middle" style="white-space: pre;" direction="ltr" dominant-baseline="text-before-edge">Output</text></g><g stroke-linecap="round" transform="translate(974.5358996532642 85.57646923984339) rotate(0 46.91215102535227 49.79326922107316)"><path d="M93.82 49.79 C93.82 51.96, 93.69 54.14, 93.42 56.29 C93.16 58.44, 92.75 60.59, 92.23 62.68 C91.7 64.77, 91.03 66.85, 90.25 68.85 C89.47 70.85, 88.56 72.81, 87.54 74.69 C86.52 76.57, 85.37 78.39, 84.13 80.11 C82.89 81.82, 81.53 83.47, 80.08 85 C78.64 86.53, 77.09 87.98, 75.47 89.3 C73.85 90.62, 72.14 91.83, 70.37 92.92 C68.6 94, 66.75 94.97, 64.86 95.8 C62.98 96.63, 61.03 97.33, 59.05 97.89 C57.08 98.45, 55.06 98.88, 53.04 99.16 C51.01 99.44, 48.95 99.59, 46.91 99.59 C44.87 99.59, 42.81 99.44, 40.79 99.16 C38.77 98.88, 36.74 98.45, 34.77 97.89 C32.8 97.33, 30.85 96.63, 28.96 95.8 C27.07 94.97, 25.22 94, 23.46 92.92 C21.69 91.83, 19.97 90.62, 18.35 89.3 C16.73 87.98, 15.18 86.53, 13.74 85 C12.3 83.47, 10.94 81.82, 9.69 80.11 C8.45 78.39, 7.31 76.57, 6.29 74.69 C5.26 72.81, 4.35 70.85, 3.57 68.85 C2.79 66.85, 2.13 64.77, 1.6 62.68 C1.07 60.59, 0.67 58.44, 0.4 56.29 C0.13 54.14, 0 51.96, 0 49.79 C0 47.63, 0.13 45.44, 0.4 43.29 C0.67 41.15, 1.07 39, 1.6 36.91 C2.13 34.81, 2.79 32.74, 3.57 30.74 C4.35 28.74, 5.26 26.77, 6.29 24.9 C7.31 23.02, 8.45 21.2, 9.69 19.48 C10.94 17.76, 12.3 16.12, 13.74 14.58 C15.18 13.05, 16.73 11.61, 18.35 10.29 C19.97 8.97, 21.69 7.75, 23.46 6.67 C25.22 5.59, 27.07 4.62, 28.96 3.79 C30.85 2.96, 32.8 2.26, 34.77 1.7 C36.74 1.14, 38.77 0.71, 40.79 0.43 C42.81 0.14, 44.87 0, 46.91 0 C48.95 0, 51.01 0.14, 53.04 0.43 C55.06 0.71, 57.08 1.14, 59.05 1.7 C61.03 2.26, 62.98 2.96, 64.86 3.79 C66.75 4.62, 68.6 5.59, 70.37 6.67 C72.14 7.75, 73.85 8.97, 75.47 10.29 C77.09 11.61, 78.64 13.05, 80.08 14.58 C81.53 16.12, 82.89 17.76, 84.13 19.48 C85.37 21.2, 86.52 23.02, 87.54 24.9 C88.56 26.77, 89.47 28.74, 90.25 30.74 C91.03 32.74, 91.7 34.81, 92.23 36.91 C92.75 39, 93.16 41.15, 93.42 43.29 C93.69 45.44, 93.76 48.71, 93.82 49.79 C93.89 50.88, 93.89 48.71, 93.82 49.79" stroke="none" stroke-width="0" fill="#ffc9c9"></path><path d="M93.82 49.79 C93.82 51.96, 93.69 54.14, 93.42 56.29 C93.16 58.44, 92.75 60.59, 92.23 62.68 C91.7 64.77, 91.03 66.85, 90.25 68.85 C89.47 70.85, 88.56 72.81, 87.54 74.69 C86.52 76.57, 85.37 78.39, 84.13 80.11 C82.89 81.82, 81.53 83.47, 80.08 85 C78.64 86.53, 77.09 87.98, 75.47 89.3 C73.85 90.62, 72.14 91.83, 70.37 92.92 C68.6 94, 66.75 94.97, 64.86 95.8 C62.98 96.63, 61.03 97.33, 59.05 97.89 C57.08 98.45, 55.06 98.88, 53.04 99.16 C51.01 99.44, 48.95 99.59, 46.91 99.59 C44.87 99.59, 42.81 99.44, 40.79 99.16 C38.77 98.88, 36.74 98.45, 34.77 97.89 C32.8 97.33, 30.85 96.63, 28.96 95.8 C27.07 94.97, 25.22 94, 23.46 92.92 C21.69 91.83, 19.97 90.62, 18.35 89.3 C16.73 87.98, 15.18 86.53, 13.74 85 C12.3 83.47, 10.94 81.82, 9.69 80.11 C8.45 78.39, 7.31 76.57, 6.29 74.69 C5.26 72.81, 4.35 70.85, 3.57 68.85 C2.79 66.85, 2.13 64.77, 1.6 62.68 C1.07 60.59, 0.67 58.44, 0.4 56.29 C0.13 54.14, 0 51.96, 0 49.79 C0 47.63, 0.13 45.44, 0.4 43.29 C0.67 41.15, 1.07 39, 1.6 36.91 C2.13 34.81, 2.79 32.74, 3.57 30.74 C4.35 28.74, 5.26 26.77, 6.29 24.9 C7.31 23.02, 8.45 21.2, 9.69 19.48 C10.94 17.76, 12.3 16.12, 13.74 14.58 C15.18 13.05, 16.73 11.61, 18.35 10.29 C19.97 8.97, 21.69 7.75, 23.46 6.67 C25.22 5.59, 27.07 4.62, 28.96 3.79 C30.85 2.96, 32.8 2.26, 34.77 1.7 C36.74 1.14, 38.77 0.71, 40.79 0.43 C42.81 0.14, 44.87 0, 46.91 0 C48.95 0, 51.01 0.14, 53.04 0.43 C55.06 0.71, 57.08 1.14, 59.05 1.7 C61.03 2.26, 62.98 2.96, 64.86 3.79 C66.75 4.62, 68.6 5.59, 70.37 6.67 C72.14 7.75, 73.85 8.97, 75.47 10.29 C77.09 11.61, 78.64 13.05, 80.08 14.58 C81.53 16.12, 82.89 17.76, 84.13 19.48 C85.37 21.2, 86.52 23.02, 87.54 24.9 C88.56 26.77, 89.47 28.74, 90.25 30.74 C91.03 32.74, 91.7 34.81, 92.23 36.91 C92.75 39, 93.16 41.15, 93.42 43.29 C93.69 45.44, 93.76 48.71, 93.82 49.79 C93.89 50.88, 93.89 48.71, 93.82 49.79" stroke="#1e1e1e" stroke-width="2" fill="none"></path></g><g transform="translate(999.9461792550659 111.16058013724842) rotate(0 21.329971313476562 24)"><text x="21.329971313476562" y="0" font-family="LocalFont, Segoe UI Emoji" font-size="20px" fill="#1e1e1e" text-anchor="middle" style="white-space: pre;" direction="ltr" dominant-baseline="text-before-edge">LLM</text><text x="21.329971313476562" y="24" font-family="LocalFont, Segoe UI Emoji" font-size="20px" fill="#1e1e1e" text-anchor="middle" style="white-space: pre;" direction="ltr" dominant-baseline="text-before-edge">App</text></g><g stroke-linecap="round"><g transform="translate(908.6134027550306 135.36973846091655) rotate(0 26.70585303365789 0)"><path d="M0 0 C8.9 0, 44.51 0, 53.41 0 M0 0 C8.9 0, 44.51 0, 53.41 0" stroke="#1e1e1e" stroke-width="2" fill="none"></path></g><g transform="translate(908.6134027550306 135.36973846091655) rotate(0 26.70585303365789 0)"><path d="M29.92 8.55 C38.4 5.46, 46.89 2.37, 53.41 0 M29.92 8.55 C35.61 6.48, 41.29 4.41, 53.41 0" stroke="#1e1e1e" stroke-width="2" fill="none"></path></g><g transform="translate(908.6134027550306 135.36973846091655) rotate(0 26.70585303365789 0)"><path d="M29.92 -8.55 C38.4 -5.46, 46.89 -2.37, 53.41 0 M29.92 -8.55 C35.61 -6.48, 41.29 -4.41, 53.41 0" stroke="#1e1e1e" stroke-width="2" fill="none"></path></g></g><mask></mask><g stroke-linecap="round"><g transform="translate(1078.1143206852062 135.36973846091655) rotate(0 38.47531490984409 0)"><path d="M0 0 C12.83 0, 64.13 0, 76.95 0 M0 0 C12.83 0, 64.13 0, 76.95 0" stroke="#1e1e1e" stroke-width="2" fill="none"></path></g><g transform="translate(1078.1143206852062 135.36973846091655) rotate(0 38.47531490984409 0)"><path d="M53.46 8.55 C61.22 5.72, 68.99 2.9, 76.95 0 M53.46 8.55 C58.83 6.59, 64.21 4.64, 76.95 0" stroke="#1e1e1e" stroke-width="2" fill="none"></path></g><g transform="translate(1078.1143206852062 135.36973846091655) rotate(0 38.47531490984409 0)"><path d="M53.46 -8.55 C61.22 -5.72, 68.99 -2.9, 76.95 0 M53.46 -8.55 C58.83 -6.59, 64.21 -4.64, 76.95 0" stroke="#1e1e1e" stroke-width="2" fill="none"></path></g></g><mask></mask><g stroke-linecap="round"><g transform="translate(852.5858692987185 161.67251718539183) rotate(0 67.00156228572786 49.84991606779181)"><path d="M0 0 C22.33 16.62, 111.67 83.08, 134 99.7 M0 0 C22.33 16.62, 111.67 83.08, 134 99.7" stroke="#1e1e1e" stroke-width="2" fill="none"></path></g><g transform="translate(852.5858692987185 161.67251718539183) rotate(0 67.00156228572786 49.84991606779181)"><path d="M110.05 92.54 C117.62 94.8, 125.19 97.06, 134 99.7 M110.05 92.54 C115.91 94.29, 121.77 96.04, 134 99.7" stroke="#1e1e1e" stroke-width="2" fill="none"></path></g><g transform="translate(852.5858692987185 161.67251718539183) rotate(0 67.00156228572786 49.84991606779181)"><path d="M120.26 78.82 C124.6 85.41, 128.94 92.01, 134 99.7 M120.26 78.82 C123.62 83.93, 126.98 89.04, 134 99.7" stroke="#1e1e1e" stroke-width="2" fill="none"></path></g></g><mask></mask><g stroke-linecap="round"><g transform="translate(1197.8444084806015 160.41211704259877) rotate(0 -75.70868354369458 49.955110495526924)"><path d="M0 0 C-25.24 16.65, -126.18 83.26, -151.42 99.91 M0 0 C-25.24 16.65, -126.18 83.26, -151.42 99.91" stroke="#1e1e1e" stroke-width="2" fill="none"></path></g><g transform="translate(1197.8444084806015 160.41211704259877) rotate(0 -75.70868354369458 49.955110495526924)"><path d="M-136.52 79.84 C-141.02 85.9, -145.52 91.97, -151.42 99.91 M-136.52 79.84 C-140.96 85.82, -145.41 91.81, -151.42 99.91" stroke="#1e1e1e" stroke-width="2" fill="none"></path></g><g transform="translate(1197.8444084806015 160.41211704259877) rotate(0 -75.70868354369458 49.955110495526924)"><path d="M-127.1 94.11 C-134.45 95.86, -141.8 97.61, -151.42 99.91 M-127.1 94.11 C-134.36 95.84, -141.61 97.57, -151.42 99.91" stroke="#1e1e1e" stroke-width="2" fill="none"></path></g></g><mask></mask><g stroke-linecap="round" transform="translate(933.2646806247051 266.68109566307953) rotate(0 88.1833700539114 24)"><path d="M176.37 24 C176.37 24.96, 176.15 25.94, 175.72 26.89 C175.3 27.85, 174.65 28.81, 173.8 29.74 C172.96 30.68, 171.89 31.61, 170.64 32.51 C169.38 33.41, 167.91 34.3, 166.27 35.15 C164.62 36.01, 162.77 36.84, 160.76 37.63 C158.74 38.43, 156.54 39.19, 154.19 39.91 C151.84 40.64, 149.31 41.32, 146.66 41.96 C144.01 42.6, 141.19 43.2, 138.28 43.75 C135.36 44.3, 132.3 44.8, 129.16 45.25 C126.03 45.7, 122.77 46.1, 119.45 46.44 C116.14 46.78, 112.73 47.07, 109.29 47.3 C105.85 47.53, 102.33 47.71, 98.81 47.83 C95.3 47.94, 91.73 48, 88.18 48 C84.64 48, 81.07 47.94, 77.55 47.83 C74.04 47.71, 70.52 47.53, 67.08 47.3 C63.64 47.07, 60.23 46.78, 56.91 46.44 C53.6 46.1, 50.34 45.7, 47.2 45.25 C44.07 44.8, 41.01 44.3, 38.09 43.75 C35.17 43.2, 32.36 42.6, 29.71 41.96 C27.05 41.32, 24.53 40.64, 22.18 39.91 C19.83 39.19, 17.62 38.43, 15.61 37.63 C13.6 36.84, 11.75 36.01, 10.1 35.15 C8.45 34.3, 6.99 33.41, 5.73 32.51 C4.47 31.61, 3.41 30.68, 2.56 29.74 C1.71 28.81, 1.07 27.85, 0.64 26.89 C0.22 25.94, 0 24.96, 0 24 C0 23.04, 0.22 22.06, 0.64 21.11 C1.07 20.15, 1.71 19.19, 2.56 18.26 C3.41 17.32, 4.47 16.39, 5.73 15.49 C6.99 14.59, 8.45 13.7, 10.1 12.85 C11.75 11.99, 13.6 11.16, 15.61 10.37 C17.62 9.57, 19.83 8.81, 22.18 8.09 C24.53 7.36, 27.05 6.68, 29.71 6.04 C32.36 5.4, 35.17 4.8, 38.09 4.25 C41.01 3.7, 44.07 3.2, 47.2 2.75 C50.34 2.3, 53.6 1.9, 56.91 1.56 C60.23 1.22, 63.64 0.93, 67.08 0.7 C70.52 0.47, 74.04 0.29, 77.55 0.17 C81.07 0.06, 84.64 0, 88.18 0 C91.73 0, 95.3 0.06, 98.81 0.17 C102.33 0.29, 105.85 0.47, 109.29 0.7 C112.73 0.93, 116.14 1.22, 119.45 1.56 C122.77 1.9, 126.03 2.3, 129.16 2.75 C132.3 3.2, 135.36 3.7, 138.28 4.25 C141.19 4.8, 144.01 5.4, 146.66 6.04 C149.31 6.68, 151.84 7.36, 154.19 8.09 C156.54 8.81, 158.74 9.57, 160.76 10.37 C162.77 11.16, 164.62 11.99, 166.27 12.85 C167.91 13.7, 169.38 14.59, 170.64 15.49 C171.89 16.39, 172.96 17.32, 173.8 18.26 C174.65 19.19, 175.3 20.15, 175.72 21.11 C176.15 22.06, 176.37 23.04, 176.37 24" stroke="none" stroke-width="0" fill="#ffec99"></path><path d="M176.37 24 C176.37 24.96, 176.15 25.94, 175.72 26.89 C175.3 27.85, 174.65 28.81, 173.8 29.74 C172.96 30.68, 171.89 31.61, 170.64 32.51 C169.38 33.41, 167.91 34.3, 166.27 35.15 C164.62 36.01, 162.77 36.84, 160.76 37.63 C158.74 38.43, 156.54 39.19, 154.19 39.91 C151.84 40.64, 149.31 41.32, 146.66 41.96 C144.01 42.6, 141.19 43.2, 138.28 43.75 C135.36 44.3, 132.3 44.8, 129.16 45.25 C126.03 45.7, 122.77 46.1, 119.45 46.44 C116.14 46.78, 112.73 47.07, 109.29 47.3 C105.85 47.53, 102.33 47.71, 98.81 47.83 C95.3 47.94, 91.73 48, 88.18 48 C84.64 48, 81.07 47.94, 77.55 47.83 C74.04 47.71, 70.52 47.53, 67.08 47.3 C63.64 47.07, 60.23 46.78, 56.91 46.44 C53.6 46.1, 50.34 45.7, 47.2 45.25 C44.07 44.8, 41.01 44.3, 38.09 43.75 C35.17 43.2, 32.36 42.6, 29.71 41.96 C27.05 41.32, 24.53 40.64, 22.18 39.91 C19.83 39.19, 17.62 38.43, 15.61 37.63 C13.6 36.84, 11.75 36.01, 10.1 35.15 C8.45 34.3, 6.99 33.41, 5.73 32.51 C4.47 31.61, 3.41 30.68, 2.56 29.74 C1.71 28.81, 1.07 27.85, 0.64 26.89 C0.22 25.94, 0 24.96, 0 24 C0 23.04, 0.22 22.06, 0.64 21.11 C1.07 20.15, 1.71 19.19, 2.56 18.26 C3.41 17.32, 4.47 16.39, 5.73 15.49 C6.99 14.59, 8.45 13.7, 10.1 12.85 C11.75 11.99, 13.6 11.16, 15.61 10.37 C17.62 9.57, 19.83 8.81, 22.18 8.09 C24.53 7.36, 27.05 6.68, 29.71 6.04 C32.36 5.4, 35.17 4.8, 38.09 4.25 C41.01 3.7, 44.07 3.2, 47.2 2.75 C50.34 2.3, 53.6 1.9, 56.91 1.56 C60.23 1.22, 63.64 0.93, 67.08 0.7 C70.52 0.47, 74.04 0.29, 77.55 0.17 C81.07 0.06, 84.64 0, 88.18 0 C91.73 0, 95.3 0.06, 98.81 0.17 C102.33 0.29, 105.85 0.47, 109.29 0.7 C112.73 0.93, 116.14 1.22, 119.45 1.56 C122.77 1.9, 126.03 2.3, 129.16 2.75 C132.3 3.2, 135.36 3.7, 138.28 4.25 C141.19 4.8, 144.01 5.4, 146.66 6.04 C149.31 6.68, 151.84 7.36, 154.19 8.09 C156.54 8.81, 158.74 9.57, 160.76 10.37 C162.77 11.16, 164.62 11.99, 166.27 12.85 C167.91 13.7, 169.38 14.59, 170.64 15.49 C171.89 16.39, 172.96 17.32, 173.8 18.26 C174.65 19.19, 175.3 20.15, 175.72 21.11 C176.15 22.06, 176.37 23.04, 176.37 24" stroke="#1e1e1e" stroke-width="2" fill="none"></path></g><g transform="translate(965.949047938992 278.7105329146025) rotate(0 55.643943786621094 12)"><text x="55.643943786621094" y="0" font-family="LocalFont, Segoe UI Emoji" font-size="20px" fill="#1e1e1e" text-anchor="middle" style="white-space: pre;" direction="ltr" dominant-baseline="text-before-edge">Monitoring</text></g><g stroke-linecap="round"><g transform="translate(1018.7891713852312 326.5838289960095) rotate(0 0.2939006143440679 32.28031167831455)"><path d="M0 0 C0.1 10.76, 0.49 53.8, 0.59 64.56 M0 0 C0.1 10.76, 0.49 53.8, 0.59 64.56" stroke="#1e1e1e" stroke-width="2" fill="none"></path></g><g transform="translate(1018.7891713852312 326.5838289960095) rotate(0 0.2939006143440679 32.28031167831455)"><path d="M-8.18 41.15 C-6.18 46.47, -4.19 51.79, 0.59 64.56 M-8.18 41.15 C-6.41 45.87, -4.64 50.6, 0.59 64.56" stroke="#1e1e1e" stroke-width="2" fill="none"></path></g><g transform="translate(1018.7891713852312 326.5838289960095) rotate(0 0.2939006143440679 32.28031167831455)"><path d="M8.92 40.99 C7.03 46.35, 5.14 51.7, 0.59 64.56 M8.92 40.99 C7.24 45.75, 5.56 50.51, 0.59 64.56" stroke="#1e1e1e" stroke-width="2" fill="none"></path></g></g><mask></mask><g transform="translate(986.9080802806673 400.5788814120767) rotate(0 34.53997039794922 12)"><text x="34.53997039794922" y="0" font-family="LocalFont, Segoe UI Emoji" font-size="20px" fill="#1e1e1e" text-anchor="middle" style="white-space: pre;" direction="ltr" dominant-baseline="text-before-edge">Report</text></g><g stroke-linecap="round" transform="translate(780.6542178845928 117.86973846091655) rotate(0 60.728772932344725 17.5)"><path d="M8.75 0 C30.32 0, 51.88 0, 112.71 0 C118.54 0, 121.46 2.92, 121.46 8.75 C121.46 13.31, 121.46 17.87, 121.46 26.25 C121.46 32.08, 118.54 35, 112.71 35 C79.79 35, 46.88 35, 8.75 35 C2.92 35, 0 32.08, 0 26.25 C0 22.33, 0 18.42, 0 8.75 C0 2.92, 2.92 0, 8.75 0" stroke="none" stroke-width="0" fill="#fff4e6"></path><path d="M8.75 0 C35 0, 61.25 0, 112.71 0 M8.75 0 C47.06 0, 85.37 0, 112.71 0 M112.71 0 C118.54 0, 121.46 2.92, 121.46 8.75 M112.71 0 C118.54 0, 121.46 2.92, 121.46 8.75 M121.46 8.75 C121.46 15.65, 121.46 22.55, 121.46 26.25 M121.46 8.75 C121.46 14.46, 121.46 20.16, 121.46 26.25 M121.46 26.25 C121.46 32.08, 118.54 35, 112.71 35 M121.46 26.25 C121.46 32.08, 118.54 35, 112.71 35 M112.71 35 C72.13 35, 31.56 35, 8.75 35 M112.71 35 C71.49 35, 30.28 35, 8.75 35 M8.75 35 C2.92 35, 0 32.08, 0 26.25 M8.75 35 C2.92 35, 0 32.08, 0 26.25 M0 26.25 C0 21.81, 0 17.36, 0 8.75 M0 26.25 C0 20.07, 0 13.88, 0 8.75 M0 8.75 C0 2.92, 2.92 0, 8.75 0 M0 8.75 C0 2.92, 2.92 0, 8.75 0" stroke="#f08c00" stroke-width="2" fill="none"></path></g><g transform="translate(788.5730466641055 123.36973846091655) rotate(0 52.80994415283203 12)"><text x="52.80994415283203" y="0" font-family="LocalFont, Segoe UI Emoji" font-size="20px" fill="#1e1e1e" text-anchor="middle" style="white-space: pre;" direction="ltr" dominant-baseline="text-before-edge">User Input</text></g><g transform="translate(885.8928344373105 10) rotate(0 132.66006469726562 21.600000000000023)"><text x="0" y="0" font-family="LocalFont, Segoe UI Emoji" font-size="36px" fill="#1e1e1e" text-anchor="start" style="white-space: pre;" direction="ltr" dominant-baseline="text-before-edge">In deployment</text></g><g stroke-linecap="round"><g transform="translate(756.6245648672668 32.237840908855105) rotate(0 0 251.3946769736882)"><path d="M0 0 C0 83.8, 0 418.99, 0 502.79" stroke="#1e1e1e" stroke-width="1.5" fill="none" stroke-dasharray="8 9"></path></g></g><mask></mask><g stroke-linecap="round" transform="translate(1166.6195119911529 118.36973846091655) rotate(0 41.912112026344744 17)"><path d="M8.5 0 C31.95 0, 55.4 0, 75.32 0 C80.99 0, 83.82 2.83, 83.82 8.5 C83.82 13.84, 83.82 19.18, 83.82 25.5 C83.82 31.17, 80.99 34, 75.32 34 C50.06 34, 24.79 34, 8.5 34 C2.83 34, 0 31.17, 0 25.5 C0 20.19, 0 14.89, 0 8.5 C0 2.83, 2.83 0, 8.5 0" stroke="none" stroke-width="0" fill="#fff4e6"></path><path d="M8.5 0 C32.69 0, 56.88 0, 75.32 0 M8.5 0 C27.66 0, 46.82 0, 75.32 0 M75.32 0 C80.99 0, 83.82 2.83, 83.82 8.5 M75.32 0 C80.99 0, 83.82 2.83, 83.82 8.5 M83.82 8.5 C83.82 14.95, 83.82 21.4, 83.82 25.5 M83.82 8.5 C83.82 14.92, 83.82 21.34, 83.82 25.5 M83.82 25.5 C83.82 31.17, 80.99 34, 75.32 34 M83.82 25.5 C83.82 31.17, 80.99 34, 75.32 34 M75.32 34 C52.35 34, 29.37 34, 8.5 34 M75.32 34 C57.12 34, 38.92 34, 8.5 34 M8.5 34 C2.83 34, 0 31.17, 0 25.5 M8.5 34 C2.83 34, 0 31.17, 0 25.5 M0 25.5 C0 21.06, 0 16.61, 0 8.5 M0 25.5 C0 21.58, 0 17.66, 0 8.5 M0 8.5 C0 2.83, 2.83 0, 8.5 0 M0 8.5 C0 2.83, 2.83 0, 8.5 0" stroke="#2f9e44" stroke-width="2" fill="none"></path></g><g transform="translate(1171.8016588075366 123.36973846091655) rotate(0 36.72996520996094 12)"><text x="36.72996520996094" y="0" font-family="LocalFont, Segoe UI Emoji" font-size="20px" fill="#1e1e1e" text-anchor="middle" style="white-space: pre;" direction="ltr" dominant-baseline="text-before-edge">Output</text></g><g stroke-linecap="round" transform="translate(46.90374538795572 340.56464651402666) rotate(0 90.76949713268732 45.66490133527168)"><path d="M22.83 0 C74.14 0, 125.45 0, 158.71 0 M22.83 0 C74.81 0, 126.79 0, 158.71 0 M158.71 0 C173.93 0, 181.54 7.61, 181.54 22.83 M158.71 0 C173.93 0, 181.54 7.61, 181.54 22.83 M181.54 22.83 C181.54 31.98, 181.54 41.12, 181.54 68.5 M181.54 22.83 C181.54 40.15, 181.54 57.47, 181.54 68.5 M181.54 68.5 C181.54 83.72, 173.93 91.33, 158.71 91.33 M181.54 68.5 C181.54 83.72, 173.93 91.33, 158.71 91.33 M158.71 91.33 C108.57 91.33, 58.44 91.33, 22.83 91.33 M158.71 91.33 C119.3 91.33, 79.9 91.33, 22.83 91.33 M22.83 91.33 C7.61 91.33, 0 83.72, 0 68.5 M22.83 91.33 C7.61 91.33, 0 83.72, 0 68.5 M0 68.5 C0 51.56, 0 34.63, 0 22.83 M0 68.5 C0 58.15, 0 47.81, 0 22.83 M0 22.83 C0 7.61, 7.61 0, 22.83 0 M0 22.83 C0 7.61, 7.61 0, 22.83 0" stroke="#343a40" stroke-width="2" fill="none"></path></g><g transform="translate(111.05227084095554 343.8277730661007) rotate(0 26.6209716796875 12)"><text x="26.6209716796875" y="0" font-family="LocalFont, Segoe UI Emoji" font-size="20px" fill="#1e1e1e" text-anchor="middle" style="white-space: pre;" direction="ltr" dominant-baseline="text-before-edge">Trace</text></g><g stroke-linecap="round" transform="translate(64.2147982246031 374.2670218397268) rotate(0 33.5863354735618 17)"><path d="M8.5 0 C28.47 0, 48.43 0, 58.67 0 C64.34 0, 67.17 2.83, 67.17 8.5 C67.17 12.68, 67.17 16.85, 67.17 25.5 C67.17 31.17, 64.34 34, 58.67 34 C39.59 34, 20.51 34, 8.5 34 C2.83 34, 0 31.17, 0 25.5 C0 19, 0 12.49, 0 8.5 C0 2.83, 2.83 0, 8.5 0" stroke="none" stroke-width="0" fill="#fff4e6"></path><path d="M8.5 0 C26.64 0, 44.78 0, 58.67 0 M8.5 0 C21.01 0, 33.53 0, 58.67 0 M58.67 0 C64.34 0, 67.17 2.83, 67.17 8.5 M58.67 0 C64.34 0, 67.17 2.83, 67.17 8.5 M67.17 8.5 C67.17 15.02, 67.17 21.54, 67.17 25.5 M67.17 8.5 C67.17 12.72, 67.17 16.93, 67.17 25.5 M67.17 25.5 C67.17 31.17, 64.34 34, 58.67 34 M67.17 25.5 C67.17 31.17, 64.34 34, 58.67 34 M58.67 34 C47.89 34, 37.12 34, 8.5 34 M58.67 34 C47.19 34, 35.71 34, 8.5 34 M8.5 34 C2.83 34, 0 31.17, 0 25.5 M8.5 34 C2.83 34, 0 31.17, 0 25.5 M0 25.5 C0 19.49, 0 13.48, 0 8.5 M0 25.5 C0 18.85, 0 12.21, 0 8.5 M0 8.5 C0 2.83, 2.83 0, 8.5 0 M0 8.5 C0 2.83, 2.83 0, 8.5 0" stroke="#f08c00" stroke-width="2" fill="none"></path></g><g transform="translate(70.46116024845787 379.2670218397268) rotate(0 27.33997344970703 12)"><text x="27.33997344970703" y="0" font-family="LocalFont, Segoe UI Emoji" font-size="20px" fill="#343a40" text-anchor="middle" style="white-space: pre;" direction="ltr" dominant-baseline="text-before-edge">Input</text></g><g stroke-linecap="round" transform="translate(137.7514611975471 374.2670218397268) rotate(0 42.200332738860766 17)"><path d="M8.5 0 C33.28 0, 58.06 0, 75.9 0 C81.57 0, 84.4 2.83, 84.4 8.5 C84.4 14.24, 84.4 19.97, 84.4 25.5 C84.4 31.17, 81.57 34, 75.9 34 C49.94 34, 23.99 34, 8.5 34 C2.83 34, 0 31.17, 0 25.5 C0 20.86, 0 16.23, 0 8.5 C0 2.83, 2.83 0, 8.5 0" stroke="none" stroke-width="0" fill="#fff4e6"></path><path d="M8.5 0 C26.35 0, 44.19 0, 75.9 0 M8.5 0 C28.26 0, 48.02 0, 75.9 0 M75.9 0 C81.57 0, 84.4 2.83, 84.4 8.5 M75.9 0 C81.57 0, 84.4 2.83, 84.4 8.5 M84.4 8.5 C84.4 12.63, 84.4 16.76, 84.4 25.5 M84.4 8.5 C84.4 14.44, 84.4 20.37, 84.4 25.5 M84.4 25.5 C84.4 31.17, 81.57 34, 75.9 34 M84.4 25.5 C84.4 31.17, 81.57 34, 75.9 34 M75.9 34 C60.48 34, 45.06 34, 8.5 34 M75.9 34 C53.96 34, 32.02 34, 8.5 34 M8.5 34 C2.83 34, 0 31.17, 0 25.5 M8.5 34 C2.83 34, 0 31.17, 0 25.5 M0 25.5 C0 19, 0 12.49, 0 8.5 M0 25.5 C0 19.74, 0 13.99, 0 8.5 M0 8.5 C0 2.83, 2.83 0, 8.5 0 M0 8.5 C0 2.83, 2.83 0, 8.5 0" stroke="#2f9e44" stroke-width="2" fill="none"></path></g><g transform="translate(143.2218287264468 379.2670218397268) rotate(0 36.72996520996094 12)"><text x="36.72996520996094" y="0" font-family="LocalFont, Segoe UI Emoji" font-size="20px" fill="#1e1e1e" text-anchor="middle" style="white-space: pre;" direction="ltr" dominant-baseline="text-before-edge">Output</text></g><g stroke-linecap="round" transform="translate(58.704578295310284 380.1696462587952) rotate(0 33.5863354735618 17)"><path d="M8.5 0 C25.02 0, 41.54 0, 58.67 0 C64.34 0, 67.17 2.83, 67.17 8.5 C67.17 13.91, 67.17 19.32, 67.17 25.5 C67.17 31.17, 64.34 34, 58.67 34 C45.4 34, 32.13 34, 8.5 34 C2.83 34, 0 31.17, 0 25.5 C0 19.41, 0 13.33, 0 8.5 C0 2.83, 2.83 0, 8.5 0" stroke="none" stroke-width="0" fill="#fff4e6"></path><path d="M8.5 0 C20.16 0, 31.81 0, 58.67 0 M8.5 0 C19.56 0, 30.62 0, 58.67 0 M58.67 0 C64.34 0, 67.17 2.83, 67.17 8.5 M58.67 0 C64.34 0, 67.17 2.83, 67.17 8.5 M67.17 8.5 C67.17 13.11, 67.17 17.72, 67.17 25.5 M67.17 8.5 C67.17 14.24, 67.17 19.99, 67.17 25.5 M67.17 25.5 C67.17 31.17, 64.34 34, 58.67 34 M67.17 25.5 C67.17 31.17, 64.34 34, 58.67 34 M58.67 34 C42.13 34, 25.59 34, 8.5 34 M58.67 34 C45.84 34, 33 34, 8.5 34 M8.5 34 C2.83 34, 0 31.17, 0 25.5 M8.5 34 C2.83 34, 0 31.17, 0 25.5 M0 25.5 C0 21.98, 0 18.46, 0 8.5 M0 25.5 C0 22.02, 0 18.53, 0 8.5 M0 8.5 C0 2.83, 2.83 0, 8.5 0 M0 8.5 C0 2.83, 2.83 0, 8.5 0" stroke="#f08c00" stroke-width="2" fill="none"></path></g><g transform="translate(64.95094031916506 385.1696462587952) rotate(0 27.33997344970703 12)"><text x="27.33997344970703" y="0" font-family="LocalFont, Segoe UI Emoji" font-size="20px" fill="#343a40" text-anchor="middle" style="white-space: pre;" direction="ltr" dominant-baseline="text-before-edge">Input</text></g><g stroke-linecap="round" transform="translate(132.24124126825473 380.1696462587952) rotate(0 42.200332738860766 17)"><path d="M8.5 0 C35.02 0, 61.53 0, 75.9 0 C81.57 0, 84.4 2.83, 84.4 8.5 C84.4 12.4, 84.4 16.31, 84.4 25.5 C84.4 31.17, 81.57 34, 75.9 34 C52.6 34, 29.31 34, 8.5 34 C2.83 34, 0 31.17, 0 25.5 C0 20.96, 0 16.42, 0 8.5 C0 2.83, 2.83 0, 8.5 0" stroke="none" stroke-width="0" fill="#fff4e6"></path><path d="M8.5 0 C25.75 0, 43 0, 75.9 0 M8.5 0 C35.4 0, 62.3 0, 75.9 0 M75.9 0 C81.57 0, 84.4 2.83, 84.4 8.5 M75.9 0 C81.57 0, 84.4 2.83, 84.4 8.5 M84.4 8.5 C84.4 13.93, 84.4 19.36, 84.4 25.5 M84.4 8.5 C84.4 14.8, 84.4 21.11, 84.4 25.5 M84.4 25.5 C84.4 31.17, 81.57 34, 75.9 34 M84.4 25.5 C84.4 31.17, 81.57 34, 75.9 34 M75.9 34 C52.74 34, 29.58 34, 8.5 34 M75.9 34 C53.7 34, 31.5 34, 8.5 34 M8.5 34 C2.83 34, 0 31.17, 0 25.5 M8.5 34 C2.83 34, 0 31.17, 0 25.5 M0 25.5 C0 22.05, 0 18.59, 0 8.5 M0 25.5 C0 20.9, 0 16.3, 0 8.5 M0 8.5 C0 2.83, 2.83 0, 8.5 0 M0 8.5 C0 2.83, 2.83 0, 8.5 0" stroke="#2f9e44" stroke-width="2" fill="none"></path></g><g transform="translate(137.71160879715444 385.1696462587952) rotate(0 36.72996520996094 12)"><text x="36.72996520996094" y="0" font-family="LocalFont, Segoe UI Emoji" font-size="20px" fill="#1e1e1e" text-anchor="middle" style="white-space: pre;" direction="ltr" dominant-baseline="text-before-edge">Output</text></g><g stroke-linecap="round" transform="translate(53.19435836601747 386.07227067786357) rotate(0 33.5863354735618 17)"><path d="M8.5 0 C28.56 0, 48.62 0, 58.67 0 C64.34 0, 67.17 2.83, 67.17 8.5 C67.17 14.52, 67.17 20.53, 67.17 25.5 C67.17 31.17, 64.34 34, 58.67 34 C39.93 34, 21.18 34, 8.5 34 C2.83 34, 0 31.17, 0 25.5 C0 21.4, 0 17.31, 0 8.5 C0 2.83, 2.83 0, 8.5 0" stroke="none" stroke-width="0" fill="#fff4e6"></path><path d="M8.5 0 C25.35 0, 42.19 0, 58.67 0 M8.5 0 C21.69 0, 34.88 0, 58.67 0 M58.67 0 C64.34 0, 67.17 2.83, 67.17 8.5 M58.67 0 C64.34 0, 67.17 2.83, 67.17 8.5 M67.17 8.5 C67.17 12.2, 67.17 15.91, 67.17 25.5 M67.17 8.5 C67.17 12.4, 67.17 16.3, 67.17 25.5 M67.17 25.5 C67.17 31.17, 64.34 34, 58.67 34 M67.17 25.5 C67.17 31.17, 64.34 34, 58.67 34 M58.67 34 C43.85 34, 29.03 34, 8.5 34 M58.67 34 C42.47 34, 26.27 34, 8.5 34 M8.5 34 C2.83 34, 0 31.17, 0 25.5 M8.5 34 C2.83 34, 0 31.17, 0 25.5 M0 25.5 C0 21.15, 0 16.79, 0 8.5 M0 25.5 C0 21.73, 0 17.95, 0 8.5 M0 8.5 C0 2.83, 2.83 0, 8.5 0 M0 8.5 C0 2.83, 2.83 0, 8.5 0" stroke="#f08c00" stroke-width="2" fill="none"></path></g><g transform="translate(59.44072038987224 391.07227067786357) rotate(0 27.33997344970703 12)"><text x="27.33997344970703" y="0" font-family="LocalFont, Segoe UI Emoji" font-size="20px" fill="#343a40" text-anchor="middle" style="white-space: pre;" direction="ltr" dominant-baseline="text-before-edge">Input</text></g><g stroke-linecap="round" transform="translate(126.73102133896145 386.07227067786357) rotate(0 42.200332738860766 17)"><path d="M8.5 0 C27.24 0, 45.98 0, 75.9 0 C81.57 0, 84.4 2.83, 84.4 8.5 C84.4 12.5, 84.4 16.5, 84.4 25.5 C84.4 31.17, 81.57 34, 75.9 34 C58.5 34, 41.1 34, 8.5 34 C2.83 34, 0 31.17, 0 25.5 C0 18.8, 0 12.11, 0 8.5 C0 2.83, 2.83 0, 8.5 0" stroke="none" stroke-width="0" fill="#fff4e6"></path><path d="M8.5 0 C32.55 0, 56.59 0, 75.9 0 M8.5 0 C34.26 0, 60.02 0, 75.9 0 M75.9 0 C81.57 0, 84.4 2.83, 84.4 8.5 M75.9 0 C81.57 0, 84.4 2.83, 84.4 8.5 M84.4 8.5 C84.4 13.4, 84.4 18.29, 84.4 25.5 M84.4 8.5 C84.4 13.97, 84.4 19.45, 84.4 25.5 M84.4 25.5 C84.4 31.17, 81.57 34, 75.9 34 M84.4 25.5 C84.4 31.17, 81.57 34, 75.9 34 M75.9 34 C53.35 34, 30.8 34, 8.5 34 M75.9 34 C56.14 34, 36.37 34, 8.5 34 M8.5 34 C2.83 34, 0 31.17, 0 25.5 M8.5 34 C2.83 34, 0 31.17, 0 25.5 M0 25.5 C0 18.82, 0 12.14, 0 8.5 M0 25.5 C0 19.13, 0 12.76, 0 8.5 M0 8.5 C0 2.83, 2.83 0, 8.5 0 M0 8.5 C0 2.83, 2.83 0, 8.5 0" stroke="#2f9e44" stroke-width="2" fill="none"></path></g><g transform="translate(132.20138886786117 391.07227067786357) rotate(0 36.72996520996094 12)"><text x="36.72996520996094" y="0" font-family="LocalFont, Segoe UI Emoji" font-size="20px" fill="#1e1e1e" text-anchor="middle" style="white-space: pre;" direction="ltr" dominant-baseline="text-before-edge">Output</text></g><g transform="translate(392.95851167468754 502.68735517762684) rotate(0 100.55224609375 12)"><text x="100.55224609375" y="0" font-family="LocalFont, Segoe UI Emoji" font-size="20px" fill="#1e1e1e" text-anchor="middle" style="white-space: pre;" direction="ltr" dominant-baseline="text-before-edge">Evaluation Function</text></g><g stroke-linecap="round"><g transform="translate(557.7899825500594 405.0613592213301) rotate(0 -35.374298600515885 44.587972065274016)"><path d="M0 0 C-11.79 14.86, -58.96 74.31, -70.75 89.18 M0 0 C-11.79 14.86, -58.96 74.31, -70.75 89.18" stroke="#1e1e1e" stroke-width="2" fill="none"></path></g><g transform="translate(557.7899825500594 405.0613592213301) rotate(0 -35.374298600515885 44.587972065274016)"><path d="M-62.85 65.46 C-64.88 71.55, -66.91 77.65, -70.75 89.18 M-62.85 65.46 C-64.63 70.8, -66.41 76.15, -70.75 89.18" stroke="#1e1e1e" stroke-width="2" fill="none"></path></g><g transform="translate(557.7899825500594 405.0613592213301) rotate(0 -35.374298600515885 44.587972065274016)"><path d="M-49.45 76.09 C-54.92 79.45, -60.4 82.81, -70.75 89.18 M-49.45 76.09 C-54.25 79.04, -59.05 81.99, -70.75 89.18" stroke="#1e1e1e" stroke-width="2" fill="none"></path></g></g><mask></mask><g stroke-linecap="round"><g transform="translate(602.3786127935405 515.0060485843346) rotate(0 28.86948340659751 -0.3179084690016225)"><path d="M0 0 C9.62 -0.11, 48.12 -0.53, 57.74 -0.64 M0 0 C9.62 -0.11, 48.12 -0.53, 57.74 -0.64" stroke="#1e1e1e" stroke-width="2" fill="none"></path></g><g transform="translate(602.3786127935405 515.0060485843346) rotate(0 28.86948340659751 -0.3179084690016225)"><path d="M34.34 8.17 C40.3 5.93, 46.26 3.69, 57.74 -0.64 M34.34 8.17 C42.52 5.09, 50.71 2.01, 57.74 -0.64" stroke="#1e1e1e" stroke-width="2" fill="none"></path></g><g transform="translate(602.3786127935405 515.0060485843346) rotate(0 28.86948340659751 -0.3179084690016225)"><path d="M34.15 -8.93 C40.16 -6.82, 46.16 -4.7, 57.74 -0.64 M34.15 -8.93 C42.4 -6.03, 50.65 -3.13, 57.74 -0.64" stroke="#1e1e1e" stroke-width="2" fill="none"></path></g></g><mask></mask><g transform="translate(668.2975855123937 502.68735517762684) rotate(0 27.88397216796875 12)"><text x="27.88397216796875" y="0" font-family="LocalFont, Segoe UI Emoji" font-size="20px" fill="#1e1e1e" text-anchor="middle" style="white-space: pre;" direction="ltr" dominant-baseline="text-before-edge">Score</text></g></svg>